<svg xmlns="http://www.w3.org/2000/svg" viewBox="0 0 192 192">
<g stroke="#000" stroke-width="2" stroke-linejoin="miter" stroke-miterlimit="10">
  <path fill="#004438" d="M122.90 80.75L153.92 79.88L126.90 65.02L96.25 65.08ZM96.25 65.08L111.00 37.78L84.62 53.75L69.34 80.33ZM69.34 80.33L53.08 53.90L53.72 84.73L69.10 111.25ZM69.10 111.25L38.08 112.12L65.10 126.98L95.75 126.92ZM95.75 126.92L81.00 154.22L107.38 138.25L122.66 111.67ZM122.66 111.67L138.92 138.10L138.28 107.27L122.90 80.75Z"/>
  <path fill="#006c56" d="M138.28 107.27L168.46 106.90L153.92 79.88L122.90 80.75ZM126.90 65.02L141.67 38.70L111.00 37.78L96.25 65.08ZM84.62 53.75L69.21 27.79L53.08 53.90L69.34 80.33ZM53.72 84.73L23.54 85.10L38.08 112.12L69.10 111.25ZM65.10 126.98L50.33 153.30L81.00 154.22L95.75 126.92ZM107.38 138.25L122.79 164.21L138.92 138.10L122.66 111.67Z"/>
  <path fill="#008367" d="M126.90 65.02L153.92 79.88L168.66 52.66L141.67 38.70ZM84.62 53.75L111.00 37.78L94.79 11.41L69.21 27.79ZM53.72 84.73L53.08 53.90L22.14 54.75L23.54 85.10ZM65.10 126.98L38.08 112.12L23.34 139.34L50.33 153.30ZM107.38 138.25L81.00 154.22L97.21 180.59L122.79 164.21ZM138.28 107.27L138.92 138.10L169.86 137.25L168.46 106.90Z"/>
  <path fill="#009974" d="M168.46 106.90L184.23 79.60L168.66 52.66L153.92 79.88ZM141.67 38.70L125.92 11.39L94.79 11.41L111.00 37.78ZM69.21 27.79L37.68 27.79L22.14 54.75L53.08 53.90ZM23.54 85.10L7.77 112.40L23.34 139.34L38.08 112.12ZM50.33 153.30L66.08 180.61L97.21 180.59L81.00 154.22ZM122.79 164.21L154.32 164.21L169.86 137.25L138.92 138.10Z"/>
  <path fill="#00ad93" d="M141.67 38.70L168.66 52.66L153.16 26.11L125.92 11.39ZM69.21 27.79L94.79 11.41L64.06 11.55L37.68 27.79ZM23.54 85.10L22.14 54.75L6.90 81.44L7.77 112.40ZM50.33 153.30L23.34 139.34L38.84 165.89L66.08 180.61ZM122.79 164.21L97.21 180.59L127.94 180.45L154.32 164.21ZM168.46 106.90L169.86 137.25L185.10 110.56L184.23 79.60Z"/>
</g>
</svg>
