<svg xmlns="http://www.w3.org/2000/svg" viewBox="0 0 192 192"><g transform="translate(-2.5 -2.5)"><path d="M184.23 79.60L168.41 52.54L153.16 26.11L125.91 11.39L94.57 11.56L64.06 11.55L37.68 27.79L22.16 55.02L6.89 81.44L7.77 112.40L23.59 139.46L38.84 165.89L66.09 180.61L97.43 180.44L127.94 180.45L154.32 164.21L169.84 136.98L185.11 110.56ZM122.91 80.78L96.28 65.08L69.36 80.30L69.09 111.22L95.72 126.92L122.64 111.70Z" fill-rule="evenodd" fill="#001a15" transform="translate(5.04 5.04)"/><path d="M184.23 79.60L168.41 52.54L153.16 26.11L125.91 11.39L94.57 11.56L64.06 11.55L37.68 27.79L22.16 55.02L6.89 81.44L7.77 112.40L23.59 139.46L38.84 165.89L66.09 180.61L97.43 180.44L127.94 180.45L154.32 164.21L169.84 136.98L185.11 110.56ZM122.91 80.78L96.28 65.08L69.36 80.30L69.09 111.22L95.72 126.92L122.64 111.70Z" fill-rule="evenodd" fill="#001a15" transform="translate(4.32 4.32)"/><path d="M184.23 79.60L168.41 52.54L153.16 26.11L125.91 11.39L94.57 11.56L64.06 11.55L37.68 27.79L22.16 55.02L6.89 81.44L7.77 112.40L23.59 139.46L38.84 165.89L66.09 180.61L97.43 180.44L127.94 180.45L154.32 164.21L169.84 136.98L185.11 110.56ZM122.91 80.78L96.28 65.08L69.36 80.30L69.09 111.22L95.72 126.92L122.64 111.70Z" fill-rule="evenodd" fill="#001a15" transform="translate(3.60 3.60)"/><path d="M184.23 79.60L168.41 52.54L153.16 26.11L125.91 11.39L94.57 11.56L64.06 11.55L37.68 27.79L22.16 55.02L6.89 81.44L7.77 112.40L23.59 139.46L38.84 165.89L66.09 180.61L97.43 180.44L127.94 180.45L154.32 164.21L169.84 136.98L185.11 110.56ZM122.91 80.78L96.28 65.08L69.36 80.30L69.09 111.22L95.72 126.92L122.64 111.70Z" fill-rule="evenodd" fill="#001a15" transform="translate(2.88 2.88)"/><path d="M184.23 79.60L168.41 52.54L153.16 26.11L125.91 11.39L94.57 11.56L64.06 11.55L37.68 27.79L22.16 55.02L6.89 81.44L7.77 112.40L23.59 139.46L38.84 165.89L66.09 180.61L97.43 180.44L127.94 180.45L154.32 164.21L169.84 136.98L185.11 110.56ZM122.91 80.78L96.28 65.08L69.36 80.30L69.09 111.22L95.72 126.92L122.64 111.70Z" fill-rule="evenodd" fill="#001a15" transform="translate(2.16 2.16)"/><path d="M184.23 79.60L168.41 52.54L153.16 26.11L125.91 11.39L94.57 11.56L64.06 11.55L37.68 27.79L22.16 55.02L6.89 81.44L7.77 112.40L23.59 139.46L38.84 165.89L66.09 180.61L97.43 180.44L127.94 180.45L154.32 164.21L169.84 136.98L185.11 110.56ZM122.91 80.78L96.28 65.08L69.36 80.30L69.09 111.22L95.72 126.92L122.64 111.70Z" fill-rule="evenodd" fill="#001a15" transform="translate(1.44 1.44)"/><path d="M184.23 79.60L168.41 52.54L153.16 26.11L125.91 11.39L94.57 11.56L64.06 11.55L37.68 27.79L22.16 55.02L6.89 81.44L7.77 112.40L23.59 139.46L38.84 165.89L66.09 180.61L97.43 180.44L127.94 180.45L154.32 164.21L169.84 136.98L185.11 110.56ZM122.91 80.78L96.28 65.08L69.36 80.30L69.09 111.22L95.72 126.92L122.64 111.70Z" fill-rule="evenodd" fill="#001a15" transform="translate(0.72 0.72)"/><g stroke="#000" stroke-width="2.0" stroke-linejoin="round"><path fill="#004136" d="M122.91 80.78L153.94 80.04L126.78 64.91L96.28 65.08Z"/><path fill="#004f3f" d="M138.31 107.12L168.28 107.14L153.94 80.04L122.91 80.78Z"/><path fill="#007a60" d="M126.78 64.91L153.94 80.04L168.41 52.54L141.78 38.98Z"/><path fill="#00785b" d="M168.28 107.14L184.23 79.60L168.41 52.54L153.94 80.04Z"/><path fill="#00b499" d="M141.78 38.98L168.41 52.54L153.16 26.11L125.91 11.39Z"/><path fill="#005a4a" d="M96.28 65.08L111.15 37.84L84.47 53.80L69.36 80.30Z"/><path fill="#007960" d="M126.78 64.91L141.78 38.98L111.15 37.84L96.28 65.08Z"/><path fill="#00ab87" d="M84.47 53.80L111.15 37.84L94.57 11.56L69.51 27.84Z"/><path fill="#00b589" d="M141.78 38.98L125.91 11.39L94.57 11.56L111.15 37.84Z"/><path fill="#00ecc9" d="M69.51 27.84L94.57 11.56L64.06 11.55L37.68 27.79Z"/><path fill="#005d4c" d="M69.36 80.30L53.21 53.80L53.69 84.88L69.09 111.22Z"/><path fill="#009678" d="M84.47 53.80L69.51 27.84L53.21 53.80L69.36 80.30Z"/><path fill="#00b48e" d="M53.69 84.88L53.21 53.80L22.16 55.02L23.72 84.86Z"/><path fill="#00d6a2" d="M69.51 27.84L37.68 27.79L22.16 55.02L53.21 53.80Z"/><path fill="#00e5c2" d="M23.72 84.86L22.16 55.02L6.89 81.44L7.77 112.40Z"/><path fill="#00473a" d="M69.09 111.22L38.06 111.96L65.22 127.09L95.72 126.92Z"/><path fill="#00896d" d="M53.69 84.88L23.72 84.86L38.06 111.96L69.09 111.22Z"/><path fill="#008c6e" d="M65.22 127.09L38.06 111.96L23.59 139.46L50.22 153.02Z"/><path fill="#00ba8d" d="M23.72 84.86L7.77 112.40L23.59 139.46L38.06 111.96Z"/><path fill="#00a68d" d="M50.22 153.02L23.59 139.46L38.84 165.89L66.09 180.61Z"/><path fill="#002e26" d="M95.72 126.92L80.85 154.16L107.53 138.20L122.64 111.70Z"/><path fill="#005f4c" d="M65.22 127.09L50.22 153.02L80.85 154.16L95.72 126.92Z"/><path fill="#005b47" d="M107.53 138.20L80.85 154.16L97.43 180.44L122.49 164.16Z"/><path fill="#007d5f" d="M50.22 153.02L66.09 180.61L97.43 180.44L80.85 154.16Z"/><path fill="#006e5d" d="M122.49 164.16L97.43 180.44L127.94 180.45L154.32 164.21Z"/><path fill="#002b24" d="M122.64 111.70L138.79 138.20L138.31 107.12L122.91 80.78Z"/><path fill="#004234" d="M107.53 138.20L122.49 164.16L138.79 138.20L122.64 111.70Z"/><path fill="#005240" d="M138.31 107.12L138.79 138.20L169.84 136.98L168.28 107.14Z"/><path fill="#005c46" d="M122.49 164.16L154.32 164.21L169.84 136.98L138.79 138.20Z"/><path fill="#007564" d="M168.28 107.14L169.84 136.98L185.11 110.56L184.23 79.60Z"/></g></g></svg>