<svg xmlns="http://www.w3.org/2000/svg" viewBox="0 0 192 192"><defs><filter id="blur6" x="-40%" y="-40%" width="180%" height="180%"><feGaussianBlur stdDeviation="6"/></filter></defs><ellipse cx="96" cy="172" rx="78" ry="10" fill="#000" opacity="0.25" filter="url(#blur6)"/><g transform="translate(0 6) translate(96 96) scale(1 0.82) translate(-96 -96)"><path d="M184.23 79.60L168.41 52.54L153.16 26.11L125.91 11.39L94.57 11.56L64.06 11.55L37.68 27.79L22.16 55.02L6.89 81.44L7.77 112.40L23.59 139.46L38.84 165.89L66.09 180.61L97.43 180.44L127.94 180.45L154.32 164.21L169.84 136.98L185.11 110.56ZM122.91 80.78L96.28 65.08L69.36 80.30L69.09 111.22L95.72 126.92L122.64 111.70Z" fill-rule="evenodd" fill="#00231c" transform="translate(0.00 12.00)"/><path d="M184.23 79.60L168.41 52.54L153.16 26.11L125.91 11.39L94.57 11.56L64.06 11.55L37.68 27.79L22.16 55.02L6.89 81.44L7.77 112.40L23.59 139.46L38.84 165.89L66.09 180.61L97.43 180.44L127.94 180.45L154.32 164.21L169.84 136.98L185.11 110.56ZM122.91 80.78L96.28 65.08L69.36 80.30L69.09 111.22L95.72 126.92L122.64 111.70Z" fill-rule="evenodd" fill="#00231c" transform="translate(0.00 11.00)"/><path d="M184.23 79.60L168.41 52.54L153.16 26.11L125.91 11.39L94.57 11.56L64.06 11.55L37.68 27.79L22.16 55.02L6.89 81.44L7.77 112.40L23.59 139.46L38.84 165.89L66.09 180.61L97.43 180.44L127.94 180.45L154.32 164.21L169.84 136.98L185.11 110.56ZM122.91 80.78L96.28 65.08L69.36 80.30L69.09 111.22L95.72 126.92L122.64 111.70Z" fill-rule="evenodd" fill="#00231c" transform="translate(0.00 10.00)"/><path d="M184.23 79.60L168.41 52.54L153.16 26.11L125.91 11.39L94.57 11.56L64.06 11.55L37.68 27.79L22.16 55.02L6.89 81.44L7.77 112.40L23.59 139.46L38.84 165.89L66.09 180.61L97.43 180.44L127.94 180.45L154.32 164.21L169.84 136.98L185.11 110.56ZM122.91 80.78L96.28 65.08L69.36 80.30L69.09 111.22L95.72 126.92L122.64 111.70Z" fill-rule="evenodd" fill="#00231c" transform="translate(0.00 9.00)"/><path d="M184.23 79.60L168.41 52.54L153.16 26.11L125.91 11.39L94.57 11.56L64.06 11.55L37.68 27.79L22.16 55.02L6.89 81.44L7.77 112.40L23.59 139.46L38.84 165.89L66.09 180.61L97.43 180.44L127.94 180.45L154.32 164.21L169.84 136.98L185.11 110.56ZM122.91 80.78L96.28 65.08L69.36 80.30L69.09 111.22L95.72 126.92L122.64 111.70Z" fill-rule="evenodd" fill="#00231c" transform="translate(0.00 8.00)"/><path d="M184.23 79.60L168.41 52.54L153.16 26.11L125.91 11.39L94.57 11.56L64.06 11.55L37.68 27.79L22.16 55.02L6.89 81.44L7.77 112.40L23.59 139.46L38.84 165.89L66.09 180.61L97.43 180.44L127.94 180.45L154.32 164.21L169.84 136.98L185.11 110.56ZM122.91 80.78L96.28 65.08L69.36 80.30L69.09 111.22L95.72 126.92L122.64 111.70Z" fill-rule="evenodd" fill="#00231c" transform="translate(0.00 7.00)"/><path d="M184.23 79.60L168.41 52.54L153.16 26.11L125.91 11.39L94.57 11.56L64.06 11.55L37.68 27.79L22.16 55.02L6.89 81.44L7.77 112.40L23.59 139.46L38.84 165.89L66.09 180.61L97.43 180.44L127.94 180.45L154.32 164.21L169.84 136.98L185.11 110.56ZM122.91 80.78L96.28 65.08L69.36 80.30L69.09 111.22L95.72 126.92L122.64 111.70Z" fill-rule="evenodd" fill="#00231c" transform="translate(0.00 6.00)"/><path d="M184.23 79.60L168.41 52.54L153.16 26.11L125.91 11.39L94.57 11.56L64.06 11.55L37.68 27.79L22.16 55.02L6.89 81.44L7.77 112.40L23.59 139.46L38.84 165.89L66.09 180.61L97.43 180.44L127.94 180.45L154.32 164.21L169.84 136.98L185.11 110.56ZM122.91 80.78L96.28 65.08L69.36 80.30L69.09 111.22L95.72 126.92L122.64 111.70Z" fill-rule="evenodd" fill="#00231c" transform="translate(0.00 5.00)"/><path d="M184.23 79.60L168.41 52.54L153.16 26.11L125.91 11.39L94.57 11.56L64.06 11.55L37.68 27.79L22.16 55.02L6.89 81.44L7.77 112.40L23.59 139.46L38.84 165.89L66.09 180.61L97.43 180.44L127.94 180.45L154.32 164.21L169.84 136.98L185.11 110.56ZM122.91 80.78L96.28 65.08L69.36 80.30L69.09 111.22L95.72 126.92L122.64 111.70Z" fill-rule="evenodd" fill="#00231c" transform="translate(0.00 4.00)"/><path d="M184.23 79.60L168.41 52.54L153.16 26.11L125.91 11.39L94.57 11.56L64.06 11.55L37.68 27.79L22.16 55.02L6.89 81.44L7.77 112.40L23.59 139.46L38.84 165.89L66.09 180.61L97.43 180.44L127.94 180.45L154.32 164.21L169.84 136.98L185.11 110.56ZM122.91 80.78L96.28 65.08L69.36 80.30L69.09 111.22L95.72 126.92L122.64 111.70Z" fill-rule="evenodd" fill="#00231c" transform="translate(0.00 3.00)"/><path d="M184.23 79.60L168.41 52.54L153.16 26.11L125.91 11.39L94.57 11.56L64.06 11.55L37.68 27.79L22.16 55.02L6.89 81.44L7.77 112.40L23.59 139.46L38.84 165.89L66.09 180.61L97.43 180.44L127.94 180.45L154.32 164.21L169.84 136.98L185.11 110.56ZM122.91 80.78L96.28 65.08L69.36 80.30L69.09 111.22L95.72 126.92L122.64 111.70Z" fill-rule="evenodd" fill="#00231c" transform="translate(0.00 2.00)"/><path d="M184.23 79.60L168.41 52.54L153.16 26.11L125.91 11.39L94.57 11.56L64.06 11.55L37.68 27.79L22.16 55.02L6.89 81.44L7.77 112.40L23.59 139.46L38.84 165.89L66.09 180.61L97.43 180.44L127.94 180.45L154.32 164.21L169.84 136.98L185.11 110.56ZM122.91 80.78L96.28 65.08L69.36 80.30L69.09 111.22L95.72 126.92L122.64 111.70Z" fill-rule="evenodd" fill="#00231c" transform="translate(0.00 1.00)"/><g stroke="#000" stroke-width="2.0" stroke-linejoin="round"><path fill="#004236" d="M122.91 80.78L153.94 80.04L126.78 64.91L96.28 65.08Z"/><path fill="#005645" d="M138.31 107.12L168.28 107.14L153.94 80.04L122.91 80.78Z"/><path fill="#007d62" d="M126.78 64.91L153.94 80.04L168.41 52.54L141.78 38.98Z"/><path fill="#008061" d="M168.28 107.14L184.23 79.60L168.41 52.54L153.94 80.04Z"/><path fill="#00b398" d="M141.78 38.98L168.41 52.54L153.16 26.11L125.91 11.39Z"/><path fill="#005446" d="M96.28 65.08L111.15 37.84L84.47 53.80L69.36 80.30Z"/><path fill="#00765e" d="M126.78 64.91L141.78 38.98L111.15 37.84L96.28 65.08Z"/><path fill="#00a17f" d="M84.47 53.80L111.15 37.84L94.57 11.56L69.51 27.84Z"/><path fill="#00ae84" d="M141.78 38.98L125.91 11.39L94.57 11.56L111.15 37.84Z"/><path fill="#00dcbb" d="M69.51 27.84L94.57 11.56L64.06 11.55L37.68 27.79Z"/><path fill="#005747" d="M69.36 80.30L53.21 53.80L53.69 84.88L69.09 111.22Z"/><path fill="#008c6f" d="M84.47 53.80L69.51 27.84L53.21 53.80L69.36 80.30Z"/><path fill="#00a884" d="M53.69 84.88L53.21 53.80L22.16 55.02L23.72 84.86Z"/><path fill="#00c797" d="M69.51 27.84L37.68 27.79L22.16 55.02L53.21 53.80Z"/><path fill="#00d7b7" d="M23.72 84.86L22.16 55.02L6.89 81.44L7.77 112.40Z"/><path fill="#00463a" d="M69.09 111.22L38.06 111.96L65.22 127.09L95.72 126.92Z"/><path fill="#008267" d="M53.69 84.88L23.72 84.86L38.06 111.96L69.09 111.22Z"/><path fill="#00896c" d="M65.22 127.09L38.06 111.96L23.59 139.46L50.22 153.02Z"/><path fill="#00b287" d="M23.72 84.86L7.77 112.40L23.59 139.46L38.06 111.96Z"/><path fill="#00a78e" d="M50.22 153.02L23.59 139.46L38.84 165.89L66.09 180.61Z"/><path fill="#00342a" d="M95.72 126.92L80.85 154.16L107.53 138.20L122.64 111.70Z"/><path fill="#00624e" d="M65.22 127.09L50.22 153.02L80.85 154.16L95.72 126.92Z"/><path fill="#00654f" d="M107.53 138.20L80.85 154.16L97.43 180.44L122.49 164.16Z"/><path fill="#008464" d="M50.22 153.02L66.09 180.61L97.43 180.44L80.85 154.16Z"/><path fill="#007e6b" d="M122.49 164.16L97.43 180.44L127.94 180.45L154.32 164.21Z"/><path fill="#003129" d="M122.64 111.70L138.79 138.20L138.31 107.12L122.91 80.78Z"/><path fill="#004c3d" d="M107.53 138.20L122.49 164.16L138.79 138.20L122.64 111.70Z"/><path fill="#005e4a" d="M138.31 107.12L138.79 138.20L169.84 136.98L168.28 107.14Z"/><path fill="#006b51" d="M122.49 164.16L154.32 164.21L169.84 136.98L138.79 138.20Z"/><path fill="#00836f" d="M168.28 107.14L169.84 136.98L185.11 110.56L184.23 79.60Z"/></g></g></svg>