<svg xmlns="http://www.w3.org/2000/svg" viewBox="0 0 192 192"><defs><linearGradient id="bv0_0" gradientUnits="userSpaceOnUse" x1="115.8" y1="63.5" x2="134.2" y2="81.9"><stop offset="0" stop-color="#006553"/><stop offset="1" stop-color="#002f27"/></linearGradient><linearGradient id="bv1_0" gradientUnits="userSpaceOnUse" x1="136.7" y1="84.6" x2="155.1" y2="103.0"><stop offset="0" stop-color="#00a080"/><stop offset="1" stop-color="#004b3c"/></linearGradient><linearGradient id="bv2_0" gradientUnits="userSpaceOnUse" x1="138.5" y1="49.9" x2="156.9" y2="68.3"><stop offset="0" stop-color="#00c299"/><stop offset="1" stop-color="#005b47"/></linearGradient><linearGradient id="bv3_0" gradientUnits="userSpaceOnUse" x1="159.5" y1="70.6" x2="177.9" y2="89.0"><stop offset="0" stop-color="#00e3ac"/><stop offset="1" stop-color="#006a50"/></linearGradient><linearGradient id="bv4_0" gradientUnits="userSpaceOnUse" x1="138.1" y1="23.1" x2="156.5" y2="41.4"><stop offset="0" stop-color="#02ffd9"/><stop offset="1" stop-color="#007866"/></linearGradient><linearGradient id="bv0_1" gradientUnits="userSpaceOnUse" x1="81.1" y1="50.1" x2="99.5" y2="68.4"><stop offset="0" stop-color="#006553"/><stop offset="1" stop-color="#002f27"/></linearGradient><linearGradient id="bv1_1" gradientUnits="userSpaceOnUse" x1="109.8" y1="42.5" x2="128.2" y2="60.9"><stop offset="0" stop-color="#00a080"/><stop offset="1" stop-color="#004b3c"/></linearGradient><linearGradient id="bv2_1" gradientUnits="userSpaceOnUse" x1="80.7" y1="23.6" x2="99.1" y2="42.0"><stop offset="0" stop-color="#00c299"/><stop offset="1" stop-color="#005b47"/></linearGradient><linearGradient id="bv3_1" gradientUnits="userSpaceOnUse" x1="109.2" y1="15.7" x2="127.5" y2="34.1"><stop offset="0" stop-color="#00e3ac"/><stop offset="1" stop-color="#006a50"/></linearGradient><linearGradient id="bv4_1" gradientUnits="userSpaceOnUse" x1="57.3" y1="10.5" x2="75.6" y2="28.9"><stop offset="0" stop-color="#02ffd9"/><stop offset="1" stop-color="#007866"/></linearGradient><linearGradient id="bv0_2" gradientUnits="userSpaceOnUse" x1="52.1" y1="73.4" x2="70.5" y2="91.7"><stop offset="0" stop-color="#006553"/><stop offset="1" stop-color="#002f27"/></linearGradient><linearGradient id="bv1_2" gradientUnits="userSpaceOnUse" x1="59.9" y1="44.7" x2="78.3" y2="63.1"><stop offset="0" stop-color="#00a080"/><stop offset="1" stop-color="#004b3c"/></linearGradient><linearGradient id="bv2_2" gradientUnits="userSpaceOnUse" x1="29.0" y1="60.4" x2="47.4" y2="78.8"><stop offset="0" stop-color="#00c299"/><stop offset="1" stop-color="#005b47"/></linearGradient><linearGradient id="bv3_2" gradientUnits="userSpaceOnUse" x1="36.4" y1="31.9" x2="54.8" y2="50.3"><stop offset="0" stop-color="#00e3ac"/><stop offset="1" stop-color="#006a50"/></linearGradient><linearGradient id="bv4_2" gradientUnits="userSpaceOnUse" x1="5.9" y1="74.2" x2="24.3" y2="92.6"><stop offset="0" stop-color="#02ffd9"/><stop offset="1" stop-color="#007866"/></linearGradient><linearGradient id="bv0_3" gradientUnits="userSpaceOnUse" x1="57.8" y1="110.1" x2="76.2" y2="128.5"><stop offset="0" stop-color="#006553"/><stop offset="1" stop-color="#002f27"/></linearGradient><linearGradient id="bv1_3" gradientUnits="userSpaceOnUse" x1="36.9" y1="89.0" x2="55.3" y2="107.4"><stop offset="0" stop-color="#00a080"/><stop offset="1" stop-color="#004b3c"/></linearGradient><linearGradient id="bv2_3" gradientUnits="userSpaceOnUse" x1="35.1" y1="123.7" x2="53.5" y2="142.1"><stop offset="0" stop-color="#00c299"/><stop offset="1" stop-color="#005b47"/></linearGradient><linearGradient id="bv3_3" gradientUnits="userSpaceOnUse" x1="14.1" y1="103.0" x2="32.5" y2="121.4"><stop offset="0" stop-color="#00e3ac"/><stop offset="1" stop-color="#006a50"/></linearGradient><linearGradient id="bv4_3" gradientUnits="userSpaceOnUse" x1="35.5" y1="150.6" x2="53.9" y2="168.9"><stop offset="0" stop-color="#02ffd9"/><stop offset="1" stop-color="#007866"/></linearGradient><linearGradient id="bv0_4" gradientUnits="userSpaceOnUse" x1="92.5" y1="123.6" x2="110.9" y2="141.9"><stop offset="0" stop-color="#006553"/><stop offset="1" stop-color="#002f27"/></linearGradient><linearGradient id="bv1_4" gradientUnits="userSpaceOnUse" x1="63.8" y1="131.1" x2="82.2" y2="149.5"><stop offset="0" stop-color="#00a080"/><stop offset="1" stop-color="#004b3c"/></linearGradient><linearGradient id="bv2_4" gradientUnits="userSpaceOnUse" x1="92.9" y1="150.0" x2="111.3" y2="168.4"><stop offset="0" stop-color="#00c299"/><stop offset="1" stop-color="#005b47"/></linearGradient><linearGradient id="bv3_4" gradientUnits="userSpaceOnUse" x1="64.5" y1="157.9" x2="82.8" y2="176.3"><stop offset="0" stop-color="#00e3ac"/><stop offset="1" stop-color="#006a50"/></linearGradient><linearGradient id="bv4_4" gradientUnits="userSpaceOnUse" x1="116.4" y1="163.1" x2="134.7" y2="181.5"><stop offset="0" stop-color="#02ffd9"/><stop offset="1" stop-color="#007866"/></linearGradient><linearGradient id="bv0_5" gradientUnits="userSpaceOnUse" x1="121.5" y1="100.3" x2="139.9" y2="118.6"><stop offset="0" stop-color="#006553"/><stop offset="1" stop-color="#002f27"/></linearGradient><linearGradient id="bv1_5" gradientUnits="userSpaceOnUse" x1="113.7" y1="128.9" x2="132.1" y2="147.3"><stop offset="0" stop-color="#00a080"/><stop offset="1" stop-color="#004b3c"/></linearGradient><linearGradient id="bv2_5" gradientUnits="userSpaceOnUse" x1="144.6" y1="113.2" x2="163.0" y2="131.6"><stop offset="0" stop-color="#00c299"/><stop offset="1" stop-color="#005b47"/></linearGradient><linearGradient id="bv3_5" gradientUnits="userSpaceOnUse" x1="137.2" y1="141.7" x2="155.6" y2="160.1"><stop offset="0" stop-color="#00e3ac"/><stop offset="1" stop-color="#006a50"/></linearGradient><linearGradient id="bv4_5" gradientUnits="userSpaceOnUse" x1="167.7" y1="99.4" x2="186.1" y2="117.8"><stop offset="0" stop-color="#02ffd9"/><stop offset="1" stop-color="#007866"/></linearGradient></defs><g stroke="#000" stroke-width="2.0" stroke-linejoin="round"><path fill="url(#bv0_0)" d="M122.91 80.78L153.94 80.04L126.78 64.91L96.28 65.08Z"/><path fill="url(#bv1_0)" d="M138.31 107.12L168.28 107.14L153.94 80.04L122.91 80.78Z"/><path fill="url(#bv2_0)" d="M126.78 64.91L153.94 80.04L168.41 52.54L141.78 38.98Z"/><path fill="url(#bv3_0)" d="M168.28 107.14L184.23 79.60L168.41 52.54L153.94 80.04Z"/><path fill="url(#bv4_0)" d="M141.78 38.98L168.41 52.54L153.16 26.11L125.91 11.39Z"/><path fill="url(#bv0_1)" d="M96.28 65.08L111.15 37.84L84.47 53.80L69.36 80.30Z"/><path fill="url(#bv1_1)" d="M126.78 64.91L141.78 38.98L111.15 37.84L96.28 65.08Z"/><path fill="url(#bv2_1)" d="M84.47 53.80L111.15 37.84L94.57 11.56L69.51 27.84Z"/><path fill="url(#bv3_1)" d="M141.78 38.98L125.91 11.39L94.57 11.56L111.15 37.84Z"/><path fill="url(#bv4_1)" d="M69.51 27.84L94.57 11.56L64.06 11.55L37.68 27.79Z"/><path fill="url(#bv0_2)" d="M69.36 80.30L53.21 53.80L53.69 84.88L69.09 111.22Z"/><path fill="url(#bv1_2)" d="M84.47 53.80L69.51 27.84L53.21 53.80L69.36 80.30Z"/><path fill="url(#bv2_2)" d="M53.69 84.88L53.21 53.80L22.16 55.02L23.72 84.86Z"/><path fill="url(#bv3_2)" d="M69.51 27.84L37.68 27.79L22.16 55.02L53.21 53.80Z"/><path fill="url(#bv4_2)" d="M23.72 84.86L22.16 55.02L6.89 81.44L7.77 112.40Z"/><path fill="url(#bv0_3)" d="M69.09 111.22L38.06 111.96L65.22 127.09L95.72 126.92Z"/><path fill="url(#bv1_3)" d="M53.69 84.88L23.72 84.86L38.06 111.96L69.09 111.22Z"/><path fill="url(#bv2_3)" d="M65.22 127.09L38.06 111.96L23.59 139.46L50.22 153.02Z"/><path fill="url(#bv3_3)" d="M23.72 84.86L7.77 112.40L23.59 139.46L38.06 111.96Z"/><path fill="url(#bv4_3)" d="M50.22 153.02L23.59 139.46L38.84 165.89L66.09 180.61Z"/><path fill="url(#bv0_4)" d="M95.72 126.92L80.85 154.16L107.53 138.20L122.64 111.70Z"/><path fill="url(#bv1_4)" d="M65.22 127.09L50.22 153.02L80.85 154.16L95.72 126.92Z"/><path fill="url(#bv2_4)" d="M107.53 138.20L80.85 154.16L97.43 180.44L122.49 164.16Z"/><path fill="url(#bv3_4)" d="M50.22 153.02L66.09 180.61L97.43 180.44L80.85 154.16Z"/><path fill="url(#bv4_4)" d="M122.49 164.16L97.43 180.44L127.94 180.45L154.32 164.21Z"/><path fill="url(#bv0_5)" d="M122.64 111.70L138.79 138.20L138.31 107.12L122.91 80.78Z"/><path fill="url(#bv1_5)" d="M107.53 138.20L122.49 164.16L138.79 138.20L122.64 111.70Z"/><path fill="url(#bv2_5)" d="M138.31 107.12L138.79 138.20L169.84 136.98L168.28 107.14Z"/><path fill="url(#bv3_5)" d="M122.49 164.16L154.32 164.21L169.84 136.98L138.79 138.20Z"/><path fill="url(#bv4_5)" d="M168.28 107.14L169.84 136.98L185.11 110.56L184.23 79.60Z"/></g></svg>