<svg xmlns="http://www.w3.org/2000/svg" viewBox="0 0 360 180" preserveAspectRatio="none">
<!-- Equirectangular world map (Natural Earth 110m land, public domain). Coordinates are lon/lat mapped
     x=lon+180, y=90-lat -> the same projection the explorer geomap uses to place peer dots. -->
<rect width="360" height="180" fill="#0b1016"/>
<g fill="#22304a" stroke="#34495f" stroke-width="0.2" fill-rule="evenodd">
<path d="M120.43,170.04 L120.13,170.55 L119.84,171 L117.74,170.86 L115.51,170.92 L114.26,170.59 L114.26,170.55 L113.71,170.26 L115.96,170.29 L118.12,170.39 L118.86,169.98 L119.39,169.63 L120.43,170.04Z"/>
<path d="M20.79,169.5 L18.87,169.63 L17.56,169.28 L16.97,168.93 L16.93,168.87 L16.29,168.6 L16.89,168.22 L18.75,168.38 L19.75,168.69 L20.52,169.05 L20.79,169.5Z"/>
<path d="M134.85,168.05 L136.08,168.48 L136.51,169.09 L136.63,169.52 L136.67,170.03 L135.12,170.34 L133.49,170.59 L131.61,170.83 L129.52,171.03 L127.15,170.97 L125.84,170.63 L126.01,170.22 L128.15,169.95 L129.01,169.61 L129.64,169.18 L130.09,168.81 L130.69,168.46 L131.34,168.05 L131.85,168.05 L133.34,167.83 L134.85,168.05Z"/>
<path d="M58.79,163.5 L60.08,163.66 L61.28,163.48 L60.71,163.83 L59.77,164.09 L58.38,164.01 L57.38,163.66 L57.59,163.32 L58.79,163.5Z"/>
<path d="M54.44,163.48 L55.97,163.87 L55.38,163.83 L54.09,163.74 L52.72,163.46 L53.44,163.25 L54.44,163.48Z"/>
<path d="M81.02,161.93 L82.12,162.07 L83.21,161.95 L83.8,162.52 L83.02,162.44 L81.8,162.48 L80.57,162.44 L79.22,162.5 L78.2,162.31 L77.67,161.89 L78.3,161.72 L79.57,161.85 L81.02,161.93Z"/>
<path d="M111.55,160.96 L111.67,161.41 L111.49,161.8 L111.22,162.17 L110.04,162.31 L108.92,162.5 L107.61,162.48 L108.1,162.09 L106.93,162.23 L105.81,162.37 L105.05,162.07 L104.99,161.66 L106.08,161.27 L106.77,161.15 L107.93,161.19 L108.22,160.68 L108.28,160.31 L108.26,159.51 L108.83,159.04 L109.75,158.88 L110.28,159.25 L110.51,159.62 L110.94,160.07 L111.27,160.51 L111.55,160.96Z"/>
<path d="M121.39,154.15 L120.95,154.37 L120.21,154.21 L119.39,154.31 L118.7,154.54 L117.98,154.8 L117.49,155.09 L117.35,155.48 L117.41,155.86 L117.88,156.19 L117.19,156.43 L116.25,156.5 L115.71,156.84 L115.12,157.15 L114.49,157.58 L114.33,157.95 L114.69,158.37 L115.22,158.68 L116.04,158.91 L116.8,159.23 L117.21,159.62 L117.43,159.99 L117.72,160.38 L118.19,160.72 L118.49,161.09 L118.62,162.01 L118.92,162.38 L119,162.77 L119.31,163.17 L119.17,163.7 L118.62,164.11 L118.04,164.44 L116.7,164.58 L116.25,164.93 L115.65,165.26 L114.14,165.64 L112.81,165.79 L111.55,166.01 L110.2,166.22 L109.4,166.63 L107.79,166.67 L106.03,166.63 L104.44,166.71 L102.76,166.71 L103.07,167.1 L104.6,167.28 L105.72,167.56 L106.34,167.91 L105.23,168.22 L103.5,168.12 L102.07,168.38 L102.02,168.79 L101.98,169.18 L103.15,169.51 L103.37,169.89 L104.64,170.26 L106.76,170.42 L108.56,170.69 L109.99,171 L111.81,171.32 L114.3,171.47 L116.74,171.75 L118.45,172.04 L120.31,172.38 L121.29,172.85 L121.78,173.22 L122.99,172.87 L124.64,172.57 L126.38,172.26 L128.46,172 L130.24,171.73 L132.73,171.71 L135.17,171.85 L137.19,172.08 L137.84,171.65 L139.23,171.36 L141.76,171.34 L143.73,171.12 L145.61,170.91 L147.69,170.77 L149.9,170.59 L151.45,170.34 L150.75,169.99 L150.31,169.63 L150.31,169.26 L148.38,169.3 L146.32,169.46 L144.36,169.46 L144.09,169.08 L144.22,168.34 L144.67,168.12 L146.1,167.89 L147.79,167.65 L149,167.36 L150.22,167.07 L151.12,166.67 L152.49,166.5 L153.84,166.36 L154.53,166.28 L156.07,166.24 L157.54,166.11 L158.78,165.91 L159.99,165.67 L161.09,165.44 L162.48,165.13 L163.36,164.79 L164.3,164.5 L164.59,164.11 L163.53,163.87 L163.89,163.46 L164.55,163.15 L165.59,162.95 L166.69,162.72 L167.71,162.4 L168.49,162.01 L168.98,161.54 L169.7,161.27 L170.9,161.32 L171.39,161.66 L172.58,161.7 L172.62,161.32 L173.13,160.93 L174.21,161.03 L174.46,161.4 L175.66,161.46 L176.95,161.29 L178.2,161.17 L179.34,161.23 L179.77,161.64 L180.87,161.3 L181.89,161.13 L183.02,160.99 L184.14,160.85 L185.16,160.62 L186.27,160.46 L187.14,160.25 L187.74,159.89 L188.49,160.15 L189.53,160.01 L190.25,160.48 L190.82,160.83 L191.95,160.64 L192.4,160.25 L193.42,159.97 L194.73,160.03 L195.13,160.4 L195.95,160.03 L197.03,159.91 L198.2,159.87 L199.26,159.89 L200.38,160.01 L201.45,160.07 L201.92,160.4 L202.57,160.7 L203.67,160.52 L204.84,160.48 L205.98,160.48 L207.09,160.46 L208.09,160.32 L209.15,160.21 L210.03,159.93 L210.97,159.76 L211.99,159.66 L212.75,159.38 L213.3,158.84 L213.87,158.5 L214.91,158.66 L215.3,159.01 L216.16,159.25 L217.2,159.17 L217.91,159.52 L218.65,159.78 L219.67,159.54 L220.02,159.11 L220.92,158.93 L221.96,158.6 L222.94,158.46 L224.11,158.27 L224.9,158.05 L225.72,157.82 L226.5,157.6 L227.44,157.72 L228.34,157.37 L228.99,157.09 L229.93,157.11 L230.75,156.88 L230.95,156.52 L231.79,156.25 L232.61,156.05 L233.61,155.9 L234.53,155.82 L235.41,155.88 L236.36,155.97 L237.16,156.25 L237.26,156.68 L238.14,157.01 L238.74,157.29 L239.94,157.41 L240.61,157.68 L241.43,157.95 L242.39,158.01 L243.19,157.82 L244.05,157.41 L244.99,157.62 L245.97,157.74 L246.91,157.86 L247.89,157.93 L248.89,157.93 L249.71,158.97 L249.67,159.23 L249.56,159.68 L248.6,159.93 L247.81,160.31 L247.95,160.7 L249.07,160.68 L248.93,161.07 L248.42,161.44 L247.95,161.85 L248.71,162.17 L249.87,162.26 L251.02,162.09 L251.57,161.7 L251.91,161.32 L252.45,161.01 L253.08,160.72 L253.34,160.36 L253.86,159.87 L254.49,159.78 L255.63,159.74 L256.63,159.62 L257.64,159.46 L258.13,159.07 L258.43,158.7 L259.11,158.33 L260.09,158.07 L260.94,157.88 L261.48,157.54 L262.05,157.37 L262.78,157.21 L263.78,157.31 L264.68,157.21 L265.66,157.09 L266.75,157.15 L267.48,156.88 L267.99,156.21 L268.36,156.48 L268.83,156.95 L269.67,157.15 L270.63,157.23 L271.59,157.11 L272.61,157.19 L273.55,157.21 L274.18,157.11 L275.02,157.17 L275.78,157.39 L276.68,157.25 L277.76,157.25 L278.68,157.11 L279.72,157.25 L280.38,156.92 L280.89,156.58 L281.58,156.31 L282.83,155.56 L283.48,155.7 L284.24,155.97 L284.91,156.33 L286.18,156.93 L287.16,156.95 L288.08,156.95 L289.16,156.84 L290.24,156.7 L291.06,156.43 L291.74,156.13 L292.86,156.09 L293.6,155.88 L294.39,156.07 L294.9,156.39 L295.6,156.7 L296.7,156.66 L297.38,156.92 L298.58,157.17 L299.83,157.27 L300.87,157.19 L301.65,156.88 L302.32,156.56 L303.22,156.48 L304.12,156.62 L305.16,156.72 L306.1,156.56 L307,156.56 L307.88,156.66 L308.8,156.76 L309.7,156.58 L310.78,156.43 L311.8,156.39 L312.94,156.39 L313.86,156.29 L314.76,156.21 L315.03,155.72 L315.07,155.31 L315.7,155.58 L315.87,156.03 L316.21,156.45 L316.62,156.78 L317.46,156.95 L318.6,156.9 L319.91,156.88 L320.81,156.82 L322.12,156.82 L323.06,156.8 L324.37,156.84 L325.49,156.92 L326.2,157.23 L326,157.6 L326.65,157.9 L327.72,158.13 L328.84,158.39 L330.13,158.56 L331.48,158.72 L332.5,158.87 L333.64,158.89 L334.28,158.56 L335.17,158.84 L335.93,159.15 L336.81,159.38 L338.03,159.48 L339.18,159.6 L339.67,159.99 L340.81,160.23 L341.57,160.58 L342.69,160.74 L343.84,160.72 L344.92,160.78 L346.11,160.76 L347.31,160.83 L348.43,160.97 L349.46,161.21 L350.5,161.4 L351.21,161.7 L351.09,162.09 L350.56,162.44 L350.11,162.89 L349.76,163.24 L349.29,163.66 L347.98,163.81 L347.39,164.17 L346.09,164.38 L345.64,164.77 L344.96,165.15 L344.23,165.46 L343.82,165.87 L343.57,166.24 L343.47,166.69 L343.49,167.07 L344.06,167.46 L344.27,167.83 L344.74,168.18 L346.6,168.32 L347,168.75 L345.19,168.91 L343.67,169.12 L341.77,169.16 L340.92,169.73 L340.75,170.2 L340.32,170.57 L339.79,170.95 L341.12,171.28 L341.63,171.69 L342.49,172.06 L343.71,172.4 L345.1,172.71 L346.6,173.02 L348.9,173.34 L349.4,173.83 L352.28,174.04 L352.48,174.12 L353.22,174.41 L355.99,174.16 L358.28,174.47 L360,174.71 L360,180 L0,180 L0,174.71 L0.06,174.72 L0.94,174.14 L2.74,174.45 L2.86,174.42 L3.14,174.33 L3.48,174.23 L3.77,174.14 L3.92,174.1 L4.07,174.1 L4.17,174.12 L5.62,174.53 L6.88,174.12 L7.11,174.06 L10.05,173.88 L11,174.12 L11.47,174.24 L12.98,174.57 L15.82,174.83 L18.07,175.14 L21.93,175.37 L24.81,175.1 L29.06,175.3 L31.47,175.61 L34.11,175.32 L36.89,175.04 L37.11,174.57 L33.17,174.53 L29.94,174.3 L29.1,173.9 L26.41,173.69 L26.59,173.24 L26.96,172.83 L27.33,172.45 L27.14,172.04 L25.47,171.77 L24.71,171.42 L23.16,171.1 L25.59,171.16 L27.9,171 L29.35,171.34 L31.13,171.04 L32.78,170.67 L33.58,170.34 L33.23,169.93 L31.94,169.65 L30.47,169.36 L28.41,169.3 L26.61,169.16 L24.67,169.06 L24.02,168.69 L22.73,168.38 L21.95,168.03 L21.63,166.89 L22.12,166.99 L23.03,167.3 L24.67,167.2 L26.26,167.07 L27.08,167.5 L28.67,167.4 L30,167.18 L31.25,166.91 L32.39,166.58 L33.9,166.48 L33.86,166.11 L33.5,165.73 L33.8,165.38 L35.09,165.2 L35.68,165.54 L37.21,165.34 L38.36,165.09 L39.79,165.07 L41.14,164.97 L42.49,164.73 L43.57,164.52 L44.79,164.3 L45.57,164.36 L46.25,164.44 L47.74,164.3 L49.07,164.48 L50.45,164.46 L51.76,164.32 L53.11,164.42 L54.6,164.52 L55.99,164.48 L57.44,164.5 L58.93,164.52 L60.3,164.48 L61.32,164.19 L62.53,164.03 L63.78,164.24 L64.98,164.07 L66.06,163.71 L66.7,164.03 L67.05,164.38 L67.7,164.71 L68.74,164.42 L69.93,164.79 L71.29,164.91 L72.44,165.18 L73.85,165.13 L75.12,164.95 L76.63,164.99 L77.98,165.13 L79.35,165.3 L79.88,164.87 L79.24,164.54 L78.75,164.19 L77.45,164.11 L76.89,163.73 L76.67,163.36 L76.32,162.62 L77.08,162.75 L78.39,162.81 L79.69,162.75 L80.86,162.91 L81.88,163.21 L82.31,163.56 L83.66,163.62 L84.96,163.48 L86.33,163.28 L87.56,163.17 L88.58,163.4 L89.91,163.32 L90.77,162.56 L91.58,163.01 L92.73,163.19 L93.99,163.09 L94.81,163.48 L96.12,163.52 L97.33,163.64 L98.53,163.85 L99.31,163.48 L99.7,163.13 L100.7,163.52 L102.07,163.42 L103.09,163.64 L103.78,163.97 L105.11,163.87 L106.15,163.66 L107.17,163.4 L108.38,163.26 L109.79,163.15 L111.06,163.01 L112.04,162.79 L112.63,162.48 L112.87,162.05 L112.75,161.64 L112.44,161.25 L112.08,160.85 L111.77,160.46 L111.51,160.11 L111.46,159.72 L111.55,159.33 L112.02,158.95 L112.42,158.54 L112.57,158.15 L112.38,157.72 L112.26,157.33 L112.75,156.88 L113.3,156.58 L113.94,156.21 L114.63,155.9 L115.43,155.6 L115.82,155.17 L116.37,154.9 L117,154.64 L117.96,154.58 L118.59,154.27 L119.29,154.07 L120.11,153.96 L120.84,153.7 L121.41,153.39 L122.19,153.27 L122.78,153.53 L122.4,153.86 L121.39,154.15Z"/>
<path d="M112.25,143.85 L113.55,144.45 L114.95,144.7 L114.5,145.2 L113.55,145.25 L113.04,144.9 L112.71,145.3 L111.85,145.61 L110.77,145.5 L110.04,145.2 L108.99,145.05 L107.74,144.5 L106.71,143.96 L105.34,142.84 L106.16,143.05 L107.57,143.72 L108.89,144.07 L109.41,143.62 L109.73,142.93 L110.65,142.52 L111.37,142.64 L111.75,143.1 L112.25,143.85Z"/>
<path d="M121.45,141.1 L122.25,141.55 L121.95,141.9 L120.6,142.2 L120.15,141.85 L119.3,142.3 L118.8,141.85 L120,141.25 L120.85,141.5 L121.45,141.1Z"/>
<path d="M250.28,139.71 L248.75,139.78 L248.72,139.24 L248.87,138.83 L248.94,138.62 L249.58,138.94 L250.53,139.06 L250.56,139.25 L250.28,139.71Z"/>
<path d="M325.4,130.79 L326.36,131.14 L326.91,131 L327.69,130.81 L328.29,130.88 L328.36,132.06 L328.02,132.41 L327.91,133.21 L327.56,132.94 L326.87,133.63 L326.66,133.58 L326.05,133.55 L325.43,132.69 L325.3,132.03 L324.72,131.16 L324.74,130.7 L325.4,130.79Z"/>
<path d="M353.02,130.92 L353.25,131.33 L353.96,130.93 L354.25,131.35 L354.25,131.77 L353.88,132.23 L353.22,132.97 L352.71,133.37 L353.08,133.85 L352.31,133.87 L351.45,134.24 L351.19,134.9 L350.62,135.91 L349.83,136.36 L349.33,136.64 L348.41,136.62 L347.76,136.29 L346.68,136.22 L346.51,135.85 L347.05,135.11 L348.3,134.12 L348.95,133.94 L349.67,133.56 L350.52,133.03 L351.13,132.51 L351.57,131.77 L351.95,131.51 L352.1,130.96 L352.8,130.49 L353.02,130.92Z"/>
<path d="M354.61,126.16 L355.34,127.21 L355.36,126.53 L355.81,126.8 L355.96,127.56 L356.76,127.88 L357.44,127.96 L358.01,127.58 L358.52,127.7 L358.27,128.58 L357.97,129.17 L357.21,129.15 L356.94,129.45 L357.03,129.88 L356.89,130.07 L356.51,130.6 L356.01,131.29 L355.24,131.69 L355.07,131.43 L354.65,131.28 L355.23,130.46 L354.9,129.91 L353.82,129.51 L353.85,129.15 L354.57,128.8 L354.74,128.03 L354.7,127.38 L354.29,126.71 L354.32,126.53 L353.84,126.12 L353.05,125.24 L352.64,124.53 L353.01,124.45 L353.55,125.01 L354.33,125.27 L354.61,126.16Z"/>
<path d="M347.12,112.16 L346.74,112.4 L346.19,112.13 L345.47,111.68 L344.83,111.15 L344.17,110.44 L344.03,110.11 L344.46,110.12 L345.02,110.46 L345.46,110.8 L345.78,111.08 L346.6,111.7 L347.12,112.16Z"/>
<path d="M358.37,107.34 L358.72,107.63 L358.55,108.15 L357.93,108.29 L357.38,108.16 L357.29,107.72 L357.67,107.38 L358.13,107.5 L358.37,107.34Z"/>
<path d="M359.36,106.8 L358.73,107.01 L358.6,106.64 L359.1,106.43 L359.41,106.38 L360,106.07 L360,106.56 L359.36,106.8Z"/>
<path d="M0.08,106.5 L0,106.56 L0,106.07 L0.21,106.02 L0.08,106.5Z"/>
<path d="M347.84,106.47 L347.52,106.6 L347.18,106.16 L347.22,105.89 L347.84,106.47Z"/>
<path d="M347.11,104.93 L347.27,105.74 L347,105.61 L346.79,105.67 L346.65,105.39 L346.63,104.63 L347.11,104.93Z"/>
<path d="M230.06,103.56 L230.22,104.76 L230.48,105.23 L230.38,105.71 L230.2,106 L229.86,105.41 L229.67,105.71 L229.86,106.45 L229.77,106.88 L229.5,107.11 L229.44,107.95 L229.04,109.12 L228.55,110.5 L227.93,112.39 L227.55,113.78 L227.1,114.94 L226.28,115.18 L225.41,115.6 L224.83,115.35 L224.04,114.99 L223.76,114.46 L223.7,113.57 L223.35,112.78 L223.25,112.06 L223.43,111.34 L223.89,111.16 L223.9,110.83 L224.37,110.07 L224.46,109.44 L224.23,108.96 L224.04,108.33 L223.96,107.41 L224.31,106.85 L224.45,106.22 L224.94,106.18 L225.5,105.97 L225.87,105.79 L226.31,105.78 L226.88,105.21 L227.71,104.59 L228.01,104.09 L227.87,103.66 L228.29,103.78 L228.85,103.09 L228.86,102.49 L229.19,102.04 L229.54,102.47 L229.81,102.9 L230.06,103.56Z"/>
<path d="M323.56,103.76 L323.92,104.55 L324.56,104.17 L324.89,104.59 L325.37,104.98 L325.27,105.43 L325.49,106.29 L325.64,106.78 L325.89,106.91 L326.16,107.76 L326.06,108.28 L326.39,108.96 L327.47,109.48 L328.18,109.96 L328.85,110.39 L328.72,110.63 L329.29,111.26 L329.68,112.34 L330.08,112.12 L330.48,112.56 L330.73,112.4 L330.9,113.46 L331.61,114.08 L332.07,114.46 L332.86,115.27 L333.14,116.07 L333.16,116.64 L333.09,117.26 L333.57,118.11 L333.51,119 L333.34,119.46 L333.07,120.35 L333.09,120.92 L332.89,121.64 L332.45,122.55 L331.71,123.04 L331.34,123.82 L331.01,124.31 L330.71,125.17 L330.33,125.67 L330.08,126.42 L329.95,127.11 L330,127.43 L329.42,127.77 L328.3,127.81 L327.38,128.22 L326.92,128.61 L326.32,129.04 L325.49,128.59 L324.88,128.42 L325.03,127.9 L324.49,128.09 L323.61,128.81 L322.75,128.54 L322.18,128.38 L321.61,128.31 L320.64,128.02 L319.99,127.4 L319.81,126.64 L319.57,126.14 L319.08,125.73 L318.12,125.61 L318.45,125.13 L318.21,124.38 L317.72,125.08 L316.83,125.26 L317.35,124.71 L317.5,124.13 L317.89,123.64 L317.81,122.9 L317,123.75 L316.37,124.09 L315.99,124.89 L315.21,124.48 L315.24,123.95 L314.61,123.22 L314.09,122.85 L314.27,122.62 L312.99,122.01 L312.29,121.98 L311.33,121.5 L309.54,121.59 L308.24,121.95 L307.1,122.28 L306.15,122.22 L305.09,122.73 L304.22,122.96 L304.03,123.48 L303.66,123.89 L302.81,123.91 L302.18,124 L301.3,123.82 L300.58,123.93 L299.89,123.98 L299.3,124.51 L299.01,124.46 L298.51,124.75 L298.02,125.06 L297.3,125.03 L296.63,125.03 L295.56,124.39 L295.03,124.2 L295.05,123.62 L295.55,123.49 L295.71,123.26 L295.68,122.9 L295.8,122.21 L295.69,121.61 L295.16,120.6 L295,120.03 L295.04,119.46 L294.64,118.81 L294.62,118.52 L294.17,118.12 L294.05,117.33 L293.48,116.54 L293.34,116.12 L293.78,116.55 L293.44,115.62 L293.94,115.91 L294.23,116.3 L294.22,115.79 L293.72,115 L293.63,114.68 L293.39,114.38 L293.5,113.81 L293.71,113.56 L293.84,113.06 L293.74,112.48 L294.15,111.76 L294.23,112.52 L294.65,111.83 L295.46,111.5 L295.95,111.07 L296.71,110.7 L297.17,110.62 L297.44,110.75 L298.23,110.37 L298.84,110.26 L298.99,110.04 L299.25,109.95 L299.81,109.98 L300.86,109.68 L301.4,109.24 L301.66,108.71 L302.24,108.2 L302.29,107.8 L302.31,107.25 L303.01,106.41 L303.43,107.27 L303.86,107.07 L303.5,106.6 L303.82,106.11 L304.26,106.33 L304.38,105.57 L304.93,105.08 L305.17,104.68 L305.67,104.51 L305.69,104.23 L306.13,104.35 L306.14,104.1 L306.58,103.95 L307.07,103.82 L307.8,104.28 L308.36,104.87 L308.99,104.88 L309.62,104.97 L309.41,104.42 L309.89,103.62 L310.34,103.36 L310.18,103.11 L310.62,102.54 L311.22,102.18 L311.74,102.3 L312.58,102.11 L312.56,101.6 L311.82,101.27 L312.36,101.13 L313.02,101.38 L313.55,101.79 L314.39,102.04 L314.68,101.94 L315.3,102.25 L315.88,101.96 L316.26,102.05 L316.49,101.86 L316.95,102.35 L316.69,102.89 L316.31,103.29 L315.96,103.32 L316.08,103.72 L315.78,104.22 L315.43,104.72 L315.5,105 L316.3,105.55 L317.07,105.87 L317.58,106.22 L318.3,106.81 L318.59,106.81 L319.11,107.06 L319.26,107.37 L320.22,107.71 L320.88,107.37 L321.07,106.83 L321.27,106.39 L321.4,105.84 L321.7,105.04 L321.56,104.56 L321.64,104.27 L321.52,103.7 L321.65,102.94 L321.84,102.74 L321.69,102.41 L321.93,101.88 L322.12,101.33 L322.14,101.04 L322.52,100.67 L322.8,101.16 L322.87,101.78 L323.12,101.91 L323.16,102.33 L323.52,102.83 L323.6,103.4 L323.56,103.76Z"/>
<path d="M342.12,100.48 L342.4,100.83 L341.7,100.82 L341.32,100.2 L341.92,100.45 L342.12,100.48Z"/>
<path d="M300.72,100.24 L300.3,100.26 L298.97,99.56 L299.9,99.36 L300.43,99.67 L300.78,99.97 L300.72,100.24Z"/>
<path d="M340.85,99.87 L340.46,99.9 L339.85,99.79 L339.64,99.64 L339.7,99.24 L340.36,99.4 L340.69,99.61 L340.85,99.87Z"/>
<path d="M341.68,99.6 L341.53,99.78 L340.79,98.92 L340.58,98.32 L340.92,98.32 L341.28,99.12 L341.68,99.6Z"/>
<path d="M304.44,100.14 L303.58,100.36 L303.46,100.24 L303.55,99.9 L303.98,99.29 L304.97,98.89 L305.09,98.66 L305.95,98.43 L306.64,98.4 L306.96,98.27 L307.34,98.4 L306.97,98.67 L305.93,99.11 L305.09,99.39 L304.44,100.14Z"/>
<path d="M297.9,98.1 L298.26,98.36 L298.88,98.28 L299.13,98.71 L297.97,98.91 L297.28,99.04 L296.74,99.03 L297.08,98.46 L297.63,98.45 L297.9,98.1Z"/>
<path d="M302.9,98.09 L302.76,98.65 L301.25,98.93 L299.92,98.81 L299.92,98.44 L300.72,98.24 L301.34,98.54 L302.01,98.46 L302.9,98.09Z"/>
<path d="M339.88,98.34 L339.92,98.54 L339.13,98.11 L338.59,97.75 L338.21,97.42 L338.36,97.32 L338.82,97.56 L339.64,98.02 L339.88,98.34Z"/>
<path d="M337.54,97.35 L337.34,97.4 L336.9,97.18 L336.49,96.77 L336.54,96.6 L337.14,97.02 L337.54,97.35Z"/>
<path d="M288.62,96.78 L290.54,96.88 L290.76,96.47 L292.61,96.95 L292.98,97.59 L294.48,97.78 L295.71,98.37 L294.56,98.75 L293.46,98.35 L292.56,98.38 L291.52,98.3 L290.59,98.12 L289.43,97.74 L288.69,97.64 L288.28,97.77 L286.45,97.35 L286.28,96.92 L285.37,96.85 L286.05,95.9 L287.27,95.95 L288.07,96.35 L288.49,96.42 L288.62,96.78Z"/>
<path d="M314.72,96.21 L314.21,96.9 L314.11,96.14 L314.29,95.78 L314.5,95.45 L314.73,95.74 L314.72,96.21Z"/>
<path d="M335.88,96.82 L335.6,96.92 L335.17,96.54 L334.73,95.9 L334.51,95.14 L334.65,95.04 L334.76,95.34 L335.06,95.57 L335.55,96.2 L336.02,96.54 L335.88,96.82Z"/>
<path d="M331.98,95.48 L331.46,95.56 L331.3,95.84 L330.75,96.08 L330.24,96.32 L329.71,96.32 L328.89,96.03 L328.32,95.75 L328.4,95.44 L329.3,95.58 L329.85,95.51 L330,95.03 L330.14,95 L330.24,95.53 L330.81,95.46 L331.09,95.11 L331.65,94.76 L331.54,94.17 L332.14,94.15 L332.34,94.31 L332.32,94.87 L331.98,95.48Z"/>
<path d="M307.25,93.46 L306.87,93.79 L306.18,93.61 L305.99,93.18 L307,93.13 L307.25,93.46Z"/>
<path d="M310.47,93.09 L310.83,93.86 L309.99,93.45 L309.16,93.36 L308.59,93.43 L307.9,93.39 L308.14,92.84 L309.37,92.8 L310.47,93.09Z"/>
<path d="M333.14,94.5 L332.83,94.77 L332.64,94.18 L332.41,93.79 L331.95,93.46 L331.38,93.04 L330.66,92.74 L330.94,92.5 L331.48,92.78 L331.82,93 L332.24,93.24 L332.64,93.66 L333.02,93.98 L333.14,94.5Z"/>
<path d="M314.14,91.15 L314.42,92.77 L315.46,93.37 L316.29,92.31 L317.44,91.7 L318.33,91.7 L319.18,92.05 L319.93,92.41 L321,92.6 L322.74,93.29 L324.58,93.86 L325.27,94.37 L325.83,94.88 L325.98,95.47 L327.65,96.08 L327.89,96.61 L326.97,96.72 L327.19,97.39 L328.08,98.04 L328.73,99.1 L329.31,99.07 L329.27,99.51 L330.04,99.68 L329.74,99.87 L330.8,100.29 L330.69,100.58 L330.03,100.65 L329.78,100.39 L328.92,100.28 L327.91,100.13 L327.14,99.49 L326.57,98.94 L326.05,98.07 L324.74,97.63 L323.9,97.92 L323.29,98.25 L323.41,98.98 L322.63,99.33 L322.07,99.16 L321.03,99.12 L320.14,98.3 L319.13,98.1 L318.88,98.38 L317.61,98.41 L318.04,97.6 L318.67,97.32 L318.41,96.23 L317.93,95.39 L315.99,94.55 L315.16,94.46 L313.66,93.54 L313.37,94.02 L312.98,94.11 L312.76,93.75 L312.75,93.31 L311.99,92.82 L313.07,92.46 L313.78,92.48 L313.7,92.21 L312.23,92.21 L311.84,91.62 L310.94,91.43 L310.52,90.94 L311.87,90.7 L312.38,90.37 L313.99,90.78 L314.14,91.15Z"/>
<path d="M305.24,88.58 L304.44,89.57 L303.69,89.76 L302.72,89.57 L301.06,89.62 L300.18,89.76 L300.04,90.52 L300.94,91.41 L301.48,90.96 L303.34,90.62 L303.26,91.08 L302.82,90.93 L302.39,91.52 L301.51,91.9 L302.45,93.19 L302.27,93.53 L303.17,94.68 L303.16,95.34 L302.63,95.63 L302.24,95.28 L302.72,94.46 L301.74,94.85 L301.49,94.57 L301.62,94.19 L300.9,93.6 L300.97,92.63 L300.31,92.93 L300.39,94.1 L300.43,95.53 L299.8,95.67 L299.37,95.38 L299.65,94.46 L299.5,93.49 L299.08,93.49 L298.77,92.8 L299.18,92.15 L299.32,91.35 L299.83,89.85 L300.04,89.43 L300.89,88.69 L301.67,88.99 L302.93,89.12 L304.08,89.08 L305.07,88.36 L305.24,88.58Z"/>
<path d="M308.69,88.87 L308.64,89.74 L308.12,89.64 L307.97,90.25 L308.38,90.78 L308.1,90.9 L307.7,90.27 L307.4,88.99 L307.6,88.19 L307.93,87.83 L308,88.37 L308.59,88.46 L308.69,88.87Z"/>
<path d="M285.82,95.85 L284.71,95.87 L283.87,95.04 L282.58,94.22 L282.16,93.61 L281.4,92.8 L280.9,92.05 L280.14,90.65 L279.26,89.82 L278.97,88.96 L278.6,88.18 L277.7,87.55 L277.18,86.69 L276.42,86.13 L275.38,85.03 L275.29,84.52 L275.94,84.56 L277.48,84.75 L278.37,85.73 L279.14,86.41 L279.69,86.83 L280.64,87.9 L281.66,87.92 L282.5,88.6 L283.08,89.44 L283.84,89.9 L283.44,90.71 L284.01,91.06 L284.37,91.08 L284.54,91.78 L284.89,92.34 L285.62,92.43 L286.11,93.06 L285.86,94.31 L285.82,95.85Z"/>
<path d="M297.88,88.17 L299,89.1 L297.81,89.22 L297.48,89.9 L297.52,90.8 L296.56,91.49 L296.53,92.48 L296.15,94.01 L296,93.66 L294.86,94.11 L294.47,93.5 L293.76,93.44 L293.26,93.12 L292.07,93.48 L291.7,92.99 L291.05,93.05 L290.22,92.93 L290.07,91.59 L289.57,91.31 L289.09,90.46 L288.95,89.58 L289.07,88.66 L289.66,87.99 L290.4,88.34 L291.17,88.15 L291.37,87.3 L291.8,87.11 L293,86.9 L293.71,86.11 L294.2,85.47 L294.6,85.1 L295.45,84.55 L296.22,83.86 L296.73,83.08 L297.13,83.07 L297.64,83.58 L297.69,84.01 L298.35,84.29 L299.18,84.59 L299.11,84.98 L298.44,85.03 L298.62,85.52 L297.88,85.86 L297.31,86.77 L298.05,87.71 L297.88,88.17Z"/>
<path d="M306.38,81.59 L306.48,82.25 L306.54,82.81 L306.2,83.73 L305.83,82.71 L305.36,83.21 L305.68,83.95 L305.4,84.42 L304.22,83.84 L303.94,83.11 L304.24,82.64 L303.61,82.17 L303.3,82.58 L302.83,82.54 L302.09,83.1 L301.92,82.81 L302.31,81.97 L302.94,81.68 L303.49,81.31 L303.84,81.76 L304.6,81.49 L304.76,81.04 L305.47,81.01 L305.41,80.24 L306.22,80.71 L306.31,81.22 L306.38,81.59Z"/>
<path d="M261.22,83.8 L260.35,84.03 L259.87,83.24 L259.7,81.8 L260.15,80.18 L260.84,80.73 L261.3,81.44 L261.79,82.48 L261.64,83.52 L261.22,83.8Z"/>
<path d="M119.06,79.89 L118.23,80 L118.05,79.91 L118.34,79.64 L118.32,79.24 L118.9,79.11 L119.1,79.14 L119.06,79.89Z"/>
<path d="M303.98,79.72 L303.62,80.05 L303.31,80.68 L303,80.98 L302.38,80.29 L302.59,80.02 L302.84,79.74 L302.95,79.12 L303.5,79.06 L303.34,79.73 L304.08,78.77 L303.98,79.72Z"/>
<path d="M298.5,80.68 L297.17,81.63 L297.66,80.93 L298.39,80.32 L298.99,79.62 L299.51,78.63 L299.69,79.45 L299.03,80 L298.5,80.68Z"/>
<path d="M301.88,78.11 L302.48,78.42 L303.12,78.42 L303.1,78.83 L302.64,79.26 L302,79.56 L301.97,79.09 L302.04,78.58 L301.88,78.11Z"/>
<path d="M305.5,77.84 L305.78,78.95 L305.01,78.69 L305.03,79.02 L305.28,79.64 L304.8,79.87 L304.76,79.16 L304.46,79.11 L304.3,78.5 L304.89,78.58 L304.88,78.21 L304.27,77.44 L305.23,77.46 L305.5,77.84Z"/>
<path d="M301.53,76.93 L301.26,77.79 L300.83,77.3 L300.32,76.53 L301.18,76.57 L301.53,76.93Z"/>
<path d="M301.32,71.5 L301.94,71.78 L302.25,71.52 L302.34,71.78 L302.17,72.19 L302.52,72.91 L302.25,73.74 L301.66,74.07 L301.51,74.88 L301.73,75.67 L302.26,75.78 L302.7,75.66 L303.95,76.22 L303.86,76.76 L304.18,77 L304.08,77.46 L303.3,76.97 L302.93,76.45 L302.67,76.81 L302.03,76.22 L301.13,76.36 L300.63,76.14 L300.68,75.73 L300.99,75.47 L300.69,75.24 L300.56,75.6 L300.07,75.03 L299.92,74.59 L299.88,73.64 L300.29,73.97 L300.39,72.4 L300.72,71.49 L301.32,71.5Z"/>
<path d="M114.41,71.77 L114.15,72.02 L113.4,72.02 L112.82,72.05 L112.76,71.63 L112.9,71.48 L113.72,71.49 L114.23,71.57 L114.41,71.77Z"/>
<path d="M103.1,72.13 L102.79,72.3 L102.23,72.14 L101.66,71.77 L101.78,71.55 L102.2,71.48 L102.43,71.51 L103.1,71.6 L103.63,71.84 L103.8,72.11 L103.1,72.13Z"/>
<path d="M107.42,70.13 L108.29,70.29 L108.41,70.12 L109.19,70.12 L109.79,70.38 L110.05,70.35 L110.23,70.71 L110.78,70.69 L110.75,70.98 L111.19,71.02 L111.68,71.39 L111.31,71.79 L110.84,71.58 L110.38,71.62 L110.05,71.57 L109.87,71.75 L109.48,71.82 L109.33,71.57 L109,71.72 L108.6,72.4 L108.34,72.24 L108.29,71.96 L107.63,71.79 L107.16,71.85 L106.55,71.78 L106.08,71.97 L105.54,71.66 L105.63,71.34 L106.55,71.47 L107.31,71.55 L107.67,71.33 L107.21,70.9 L107.22,70.52 L106.58,70.36 L106.81,70.08 L107.42,70.13Z"/>
<path d="M290.34,71.32 L289.48,71.8 L288.66,71.49 L288.63,70.63 L289.12,70.18 L290.21,69.9 L290.79,69.92 L291.01,70.3 L290.57,70.74 L290.34,71.32Z"/>
<path d="M24.46,70.92 L24.31,71.08 L24.06,70.94 L24.09,70.66 L23.93,70.3 L23.98,70.19 L24.15,70.02 L24.08,69.83 L24.14,69.73 L24.21,69.75 L24.6,69.92 L24.78,70.01 L24.94,70.14 L25.19,70.49 L25.17,70.55 L24.78,70.76 L24.46,70.92Z"/>
<path d="M23.92,69.36 L23.59,69.43 L23.41,69.22 L23.3,69.14 L23.29,69.07 L23.39,68.99 L23.74,69.08 L24,69.24 L23.92,69.36Z"/>
<path d="M23.24,68.82 L23.21,68.93 L22.67,68.9 L22.75,68.78 L23.24,68.82Z"/>
<path d="M22.35,68.68 L22.29,68.74 L22.22,68.72 L21.87,68.69 L21.75,68.46 L21.71,68.42 L21.97,68.28 L22.06,68.35 L22.35,68.68Z"/>
<path d="M20.65,68.02 L20.54,68.12 L20.2,67.93 L20.25,67.86 L20.4,67.76 L20.63,67.79 L20.65,68.02Z"/>
<path d="M100.32,67.23 L100.72,67.6 L101.65,67.49 L102.01,67.72 L102.85,68.34 L103.48,68.79 L103.81,68.78 L104.4,68.98 L104.33,69.26 L105.07,69.31 L105.82,69.72 L105.7,69.95 L105.04,70.08 L104.37,70.13 L103.68,70.05 L102.24,70.14 L102.91,69.59 L102.51,69.33 L101.86,69.26 L101.52,68.97 L101.28,68.4 L100.72,68.44 L99.78,68.17 L99.48,67.96 L98.18,67.81 L97.83,67.61 L98.2,67.36 L97.22,67.31 L96.51,67.83 L96.09,67.85 L95.95,68.09 L95.45,68.2 L95.03,68.1 L95.55,67.8 L95.77,67.43 L96.22,67.21 L96.73,67.02 L97.49,66.92 L97.73,66.81 L98.6,66.88 L99.38,66.89 L100.32,67.23Z"/>
<path d="M102.47,66.24 L102.22,66.29 L101.97,65.71 L101.59,65.42 L101.81,64.79 L102.11,64.83 L102.46,65.66 L102.47,66.24Z"/>
<path d="M301.18,67.21 L300.75,68.03 L300.22,67.19 L300.11,66.44 L300.69,65.46 L301.5,64.7 L301.95,65 L301.78,65.61 L301.18,67.21Z"/>
<path d="M102.18,63.42 L101.09,63.58 L101.02,63.21 L101.49,63.13 L102.15,63.16 L102.18,63.42Z"/>
<path d="M103,63.41 L102.83,64.12 L102.64,63.99 L102.66,63.47 L102.21,63.07 L102.21,62.96 L103,63.41Z"/>
<path d="M314.64,55.85 L314.77,56.19 L314.2,56.8 L313.79,56.48 L313.28,56.71 L313.01,57.3 L312.36,57.01 L312.37,56.54 L312.92,55.94 L313.49,56.06 L313.9,55.64 L314.64,55.85Z"/>
<path d="M214.58,54.33 L213.9,54.75 L213.97,54.94 L214,55.02 L212.98,55.43 L212.49,55.3 L212.26,54.9 L212.73,54.86 L212.8,54.85 L212.95,54.61 L213.67,54.63 L214.58,54.33Z"/>
<path d="M203.7,54.29 L204.25,54.63 L205.03,54.58 L205.77,54.65 L205.75,54.82 L206.29,54.7 L206.16,55 L204.72,55.08 L204.74,54.92 L203.51,54.72 L203.7,54.29Z"/>
<path d="M195.52,51.77 L195.16,52.56 L195.31,52.87 L195.1,53.38 L194.34,53 L193.83,52.9 L192.43,52.39 L192.57,51.87 L193.74,51.97 L194.76,51.86 L195.52,51.77Z"/>
<path d="M189.21,48.79 L189.81,49.5 L189.67,50.82 L189.21,50.76 L188.81,51.09 L188.43,50.83 L188.39,49.62 L188.16,49.05 L188.71,49.1 L189.21,48.79Z"/>
<path d="M320.98,52.86 L320.6,53.66 L320.77,54.16 L320.25,54.86 L318.98,55.33 L317.22,55.39 L315.79,56.54 L315.12,56.15 L315.08,55.4 L313.34,55.62 L312.16,56.1 L310.99,56.11 L312,56.85 L311.33,58.55 L310.69,58.97 L310.2,58.58 L310.45,57.68 L309.81,57.39 L309.41,56.7 L310.35,56.4 L310.88,55.77 L311.88,55.25 L312.62,54.57 L314.61,54.27 L315.68,54.47 L316.72,52.7 L317.39,53.17 L318.86,52.17 L319.43,51.78 L320.05,50.56 L319.88,49.44 L320.31,48.8 L321.37,48.62 L321.91,50.01 L321.88,50.82 L320.96,51.83 L320.98,52.86Z"/>
<path d="M189.56,47.85 L189.23,48.62 L188.78,48.42 L188.54,47.74 L188.75,47.37 L189.39,46.99 L189.56,47.85Z"/>
<path d="M323.91,45.83 L324.61,46.04 L325.32,45.62 L325.54,46.74 L324.06,47.01 L323.18,48 L321.61,47.32 L321.07,48.42 L319.96,48.43 L319.82,47.44 L320.31,46.67 L321.38,46.61 L321.67,45.23 L321.97,44.45 L323.14,45.49 L323.91,45.83Z"/>
<path d="M116.34,43.45 L117.06,43.58 L117.99,43.56 L117.5,43.97 L117.13,44.03 L115.86,43.61 L115.61,43.27 L115.99,42.96 L116.34,43.45Z"/>
<path d="M118.19,40.89 L117.71,40.91 L116.41,40.6 L115.48,40.13 L115.83,40.04 L117.14,40.29 L118.16,40.71 L118.19,40.89Z"/>
<path d="M56.49,41.49 L55.99,41.63 L54.34,41.17 L54.05,40.82 L53.15,40.47 L52.97,40.19 L51.94,40.01 L51.56,39.46 L51.64,39.23 L52.69,39.45 L53.3,39.6 L54.24,39.7 L54.58,40.05 L55.08,40.52 L56.08,40.94 L56.49,41.49Z"/>
<path d="M123.87,39.31 L123.2,40.19 L123.86,39.85 L124.53,40.06 L124.18,40.41 L125.06,40.69 L125.53,40.44 L126.52,40.75 L126.21,41.48 L126.91,41.31 L127.04,41.84 L127.35,42.46 L126.93,43.34 L126.48,43.38 L125.82,43.19 L126.04,42.37 L125.76,42.25 L124.6,43.12 L124,43.08 L124.71,42.61 L123.75,42.37 L122.67,42.43 L120.73,42.4 L120.58,42.1 L121.2,41.75 L120.77,41.48 L121.61,40.87 L122.64,39.28 L123.26,38.71 L124.13,38.37 L124.59,38.41 L124.4,38.68 L123.87,39.31Z"/>
<path d="M47.29,35.96 L48.25,35.88 L47.95,37.02 L48.82,37.82 L48.42,37.82 L47.82,37.36 L47.45,36.9 L46.95,36.59 L46.76,36.15 L46.82,35.83 L47.29,35.96Z"/>
<path d="M323.65,39.25 L324.65,41.02 L323.17,40.69 L322.56,42.14 L323.53,43.16 L323.51,43.86 L322.75,43.26 L322.09,44.03 L321.91,43.19 L322.02,42.22 L321.9,41.14 L322.14,40.38 L322.18,39.05 L321.59,38.06 L321.68,36.7 L322.61,36.24 L322.21,35.77 L322.65,35.63 L322.91,36.3 L323.26,37.26 L323.24,38.24 L323.65,39.25Z"/>
<path d="M173.21,37.74 L171.44,38.33 L170.02,38.18 L170.83,37.14 L170.31,36.12 L171.67,35.34 L172.43,34.87 L173.27,34.83 L174.34,35.45 L173.8,36.13 L173.97,36.85 L173.21,37.74Z"/>
<path d="M192.69,34.39 L192.09,35.2 L191.04,34.64 L190.9,34.22 L192.37,33.89 L192.69,34.39Z"/>
<path d="M26.99,32.88 L25.99,33.27 L25.48,33.01 L25.33,32.54 L26.24,32.18 L26.77,32.03 L27.44,32.1 L27.86,32.41 L26.99,32.88Z"/>
<path d="M176.99,31.36 L175.93,32.45 L176.94,32.31 L178.04,32.32 L177.78,33.13 L176.88,34.03 L177.91,34.09 L178.89,35.38 L179.57,35.54 L180.18,36.67 L180.47,37.07 L181.68,37.26 L181.56,37.9 L181.05,38.19 L181.45,38.71 L180.55,39.23 L179.21,39.23 L177.51,39.5 L177.04,39.3 L176.38,39.77 L175.46,39.66 L174.75,40.04 L174.22,39.84 L175.69,38.79 L176.59,38.57 L175.02,38.41 L174.73,38.01 L175.78,37.7 L175.23,37.16 L175.42,36.5 L176.91,36.6 L177.05,36.02 L176.37,35.38 L175.16,35.21 L174.92,34.94 L175.28,34.49 L174.95,34.22 L174.41,34.69 L174.36,33.72 L173.85,33.21 L174.21,32.18 L174.99,31.37 L175.79,31.45 L176.99,31.36Z"/>
<path d="M14.42,30.09 L13.81,30.25 L13.15,30.06 L12.54,29.79 L13.53,29.62 L14.33,29.71 L14.42,30.09Z"/>
<path d="M100.73,27.84 L100.34,28.37 L99.9,28.28 L99.64,27.98 L99.68,27.91 L100.07,27.61 L100.48,27.64 L100.73,27.84Z"/>
<path d="M98.1,27.29 L96.93,27.84 L96.23,27.82 L96.01,27.55 L96.75,27.09 L98.12,27.1 L98.1,27.29Z"/>
<path d="M8.27,26.22 L8.89,26.41 L9.51,26.31 L10.32,26.57 L11.31,26.7 L11.23,26.81 L10.47,27.02 L9.71,26.81 L9.33,26.62 L8.45,26.68 L8.21,26.59 L8.27,26.22Z"/>
<path d="M94.84,24.34 L95.02,24.78 L95.54,24.63 L96.12,24.89 L97.21,25.23 L98.36,25.54 L98.45,26.02 L99.18,25.94 L99.9,26.27 L99.01,26.59 L97.45,26.35 L96.89,25.9 L95.9,26.43 L94.48,26.95 L94.13,26.36 L92.78,26.46 L93.65,25.96 L93.78,25.18 L94.12,24.26 L94.84,24.34Z"/>
<path d="M165.49,23.54 L165.26,24.19 L166.39,24.87 L165.09,25.64 L162.21,26.32 L161.34,26.5 L160.03,26.36 L157.24,26.04 L158.22,25.6 L156.04,25.11 L157.82,24.92 L157.77,24.62 L155.67,24.39 L156.35,23.74 L157.87,23.59 L159.42,24.27 L160.94,23.72 L162.2,24.01 L163.83,23.47 L165.49,23.54Z"/>
<path d="M104.13,22.85 L103.01,22.9 L102.76,22.41 L103.19,21.85 L104.1,21.71 L104.89,21.99 L104.9,22.42 L104.78,22.56 L104.13,22.85Z"/>
<path d="M4.99,23.42 L5.66,23.66 L5.43,22.94 L8.14,23.09 L10.1,24.02 L9.11,24.46 L7.47,24.56 L7.44,25.54 L7.04,25.75 L6.11,25.72 L5.35,25.37 L4.02,25.08 L3.79,24.64 L2.78,24.48 L1.64,24.61 L1.1,24.26 L1.31,23.89 L0.12,24.13 L0.57,24.6 L0,25.02 L0,21.04 L2.45,21.8 L5.07,22.79 L4.99,23.42Z"/>
<path d="M84.35,20.89 L83.73,21.24 L82.38,20.94 L81.57,21.05 L80.2,20.6 L81.08,20.29 L81.78,19.86 L82.84,20.14 L83.44,20.32 L83.74,20.51 L84.35,20.89Z"/>
<path d="M360,19.17 L358.9,19.22 L358.73,18.9 L360,18.48 L360,19.17Z"/>
<path d="M1.31,19.11 L0,19.17 L0,18.48 L0.13,18.44 L0.98,18.44 L2.42,18.73 L2.34,18.87 L1.31,19.11Z"/>
<path d="M89.45,20.5 L89.45,21.52 L90.78,20.74 L91.98,21.38 L91.68,22.13 L92.65,22.8 L93.69,22.08 L94.42,21.22 L94.48,20.12 L95.9,20.19 L97.38,20.34 L98.72,20.84 L98.78,21.33 L98.04,21.87 L98.74,22.4 L98.61,22.89 L96.66,23.59 L95.26,23.74 L94.23,23.44 L93.93,23.94 L92.97,24.79 L92.68,25.22 L91.52,25.9 L90.09,25.97 L89.3,26.39 L89.23,27.04 L88.07,27.16 L86.84,27.98 L85.76,29.1 L85.37,29.89 L85.32,31.05 L86.78,31.22 L87.24,32.15 L87.7,32.91 L89.1,32.72 L90.96,33.15 L91.96,33.53 L92.68,34 L93.93,34.28 L94.99,34.7 L96.64,34.76 L97.73,34.85 L97.56,35.72 L97.88,36.72 L98.6,37.84 L100.09,38.79 L100.86,38.47 L101.4,37.44 L100.88,35.86 L100.17,35.33 L101.77,34.86 L102.9,34.16 L103.46,33.47 L103.38,32.8 L102.7,31.95 L101.48,31.2 L102.66,30.15 L102.23,29.24 L101.89,27.68 L102.59,27.45 L104.3,27.72 L105.33,27.82 L106.16,27.56 L107.09,27.89 L108.32,28.47 L108.63,28.86 L110.41,28.94 L110.38,29.78 L110.71,31.04 L111.63,31.2 L112.35,31.79 L113.8,31.23 L114.75,30.13 L115.42,29.66 L116.2,30.56 L117.5,31.83 L118.6,33.03 L118.2,33.66 L119.53,34.22 L120.43,34.8 L122.02,35.05 L122.67,35.37 L123.06,36.22 L123.84,36.35 L124.24,36.73 L124.32,37.85 L123.59,38.23 L122.87,38.58 L121.23,38.94 L119.97,39.76 L118.28,39.92 L116.14,39.71 L114.64,39.7 L113.6,39.77 L112.76,40.49 L111.49,40.93 L110.05,42.26 L108.9,43.18 L109.74,43.01 L111.35,41.7 L113.45,40.87 L114.94,40.77 L115.83,41.26 L114.88,41.93 L115.2,43.01 L115.53,43.76 L116.83,44.26 L118.48,44.12 L119.48,42.99 L119.55,43.72 L120.2,44.08 L118.96,44.73 L116.75,45.33 L115.75,45.73 L114.64,46.45 L113.88,46.38 L113.84,45.53 L115.57,44.71 L113.97,44.74 L112.86,44.86 L113.04,45.19 L111.97,45.67 L110.94,46.02 L109.88,46.32 L109.31,46.97 L109.19,47.13 L109.17,47.66 L109.51,48.19 L109.92,48.22 L109.82,47.85 L110.12,48.08 L110.03,48.36 L109.36,48.52 L108.88,48.51 L108.14,48.68 L107.71,48.73 L107.12,48.78 L106.29,49.07 L107.76,48.88 L108.05,49.07 L106.66,49.37 L106.02,49.37 L106.05,49.25 L105.74,49.53 L106.04,49.57 L105.82,50.29 L105.09,51.06 L105.02,50.8 L104.8,50.75 L104.47,50.5 L104.68,51.04 L104.92,51.22 L104.94,51.6 L104.62,51.98 L104.06,52.78 L103.97,52.74 L104.28,52.06 L103.77,51.68 L103.65,50.85 L103.46,51.28 L103.67,51.92 L103.04,51.77 L103.7,52.08 L103.74,53.03 L104.03,53.1 L104.13,53.45 L104.27,54.45 L103.64,55.19 L102.6,55.49 L101.95,56.07 L101.45,56.14 L100.94,56.51 L100.8,56.84 L99.7,57.49 L99.14,57.97 L98.66,58.56 L98.51,59.27 L98.69,59.96 L99.02,60.82 L99.46,61.53 L99.47,61.96 L99.94,63.12 L99.91,63.79 L99.87,64.18 L99.62,64.79 L99.32,64.92 L98.83,64.8 L98.67,64.36 L98.29,64.13 L97.76,63.27 L97.29,62.5 L97.14,62.11 L97.35,61.45 L97.07,60.9 L96.29,60.06 L95.9,59.91 L94.89,60.36 L94.71,60.31 L94.23,59.85 L93.6,59.6 L92.47,59.73 L91.58,59.62 L90.82,59.68 L90.4,59.82 L90.59,60.11 L90.57,60.51 L90.78,60.71 L90.59,60.84 L90.22,60.69 L89.85,60.88 L89.12,60.85 L88.37,60.32 L87.5,60.45 L86.77,60.22 L86.15,60.29 L85.31,60.52 L84.4,61.26 L83.41,61.69 L82.86,62.17 L82.63,62.62 L82.62,63.31 L82.67,63.79 L82.86,64.13 L82.47,65.01 L82.3,65.73 L82.22,67.07 L82.13,67.56 L82.3,68.1 L82.61,68.59 L82.81,69.36 L83.47,70.11 L83.71,70.68 L84.1,71.17 L85.16,71.44 L85.57,71.86 L86.45,71.58 L87.21,71.48 L87.96,71.3 L88.59,71.12 L89.23,70.72 L89.47,70.13 L89.55,69.29 L89.72,69 L90.4,68.74 L91.46,68.51 L92.34,68.54 L92.95,68.46 L93.19,68.67 L93.15,69.15 L92.62,69.74 L92.38,70.35 L92.56,70.53 L92.41,70.96 L92.16,71.74 L91.91,71.48 L91.7,71.5 L91.7,71.65 L91.89,71.65 L91.88,71.92 L91.71,72.36 L91.8,72.51 L91.7,72.87 L91.76,72.96 L91.64,73.47 L91.45,73.73 L91.27,73.77 L91.07,74.11 L91.4,74.29 L91.48,74.14 L91.78,74.27 L91.88,74.31 L92.1,74.14 L92.38,74.12 L92.48,74.2 L92.63,74.15 L93.1,74.24 L93.56,74.22 L93.88,74.11 L94,73.99 L94.32,74.05 L94.56,74.11 L94.82,74.09 L95.02,74 L95.47,74.14 L95.63,74.16 L95.94,74.35 L96.23,74.58 L96.59,74.73 L96.85,75 L96.77,75.1 L96.72,75.32 L96.82,75.69 L96.59,76.03 L96.48,76.43 L96.45,76.87 L96.5,77.13 L96.53,77.58 L96.37,77.68 L96.28,78.11 L96.35,78.37 L96.14,78.63 L96.19,78.9 L96.34,79.06 L96.6,79.6 L96.98,80.01 L97.45,80.43 L97.81,80.79 L97.79,81 L98.19,81.05 L98.29,80.97 L98.56,81.21 L99.05,81.14 L99.48,80.89 L100.09,80.69 L100.43,80.39 L100.98,80.45 L100.94,80.55 L101.5,80.58 L101.94,80.75 L102.27,81.05 L102.65,81.33 L103.16,81.36 L103.91,80.66 L104.33,80.56 L104.34,80.23 L104.52,79.38 L105.09,78.92 L105.72,78.9 L105.8,78.69 L106.59,78.77 L107.37,78.27 L107.76,78.04 L108.25,77.56 L108.6,77.62 L108.86,77.89 L108.67,78.22 L108.64,78.46 L108.05,78.58 L108.38,79.03 L108.37,79.55 L107.93,80.13 L108.3,80.93 L108.74,80.86 L108.96,80.14 L108.65,79.79 L108.6,79.03 L109.84,78.62 L109.71,78.15 L110.06,77.84 L110.42,78.54 L111.12,78.56 L111.77,79.11 L111.81,79.45 L112.7,79.45 L113.77,79.35 L114.34,79.8 L115.11,79.92 L115.67,79.61 L115.68,79.36 L116.92,79.3 L118.12,79.28 L117.27,79.58 L117.61,80.05 L118.41,80.13 L119.17,80.62 L119.33,81.42 L119.85,81.4 L120.24,81.63 L120.9,82 L121.52,82.65 L121.55,83.17 L121.92,83.19 L122.46,83.68 L122.85,84.03 L124.05,84.23 L124.16,84.05 L124.97,83.97 L126.04,84.24 L126.38,84.35 L127.12,84.59 L128.18,85.43 L128.34,85.84 L128.68,85.8 L128.93,86.35 L129.49,88.1 L130.03,88.26 L130.05,88.95 L129.3,89.78 L129.61,90.08 L131.38,90.24 L131.42,91.24 L132.18,90.58 L133.43,90.94 L135.09,91.55 L135.58,92.14 L135.42,92.69 L136.58,92.38 L138.53,92.91 L140.02,92.87 L141.5,93.7 L142.78,94.82 L143.55,95.11 L144.4,95.15 L144.76,95.46 L145.1,96.74 L145.27,97.34 L144.87,99 L144.36,99.65 L142.95,101.04 L142.32,102.17 L141.58,103.04 L141.33,103.06 L141.05,103.79 L141.12,105.67 L140.84,107.21 L140.73,107.87 L140.42,108.26 L140.24,109.6 L139.23,110.9 L139.06,111.94 L138.25,112.37 L138.01,112.97 L136.93,112.97 L135.35,113.35 L134.65,113.8 L133.53,114.09 L132.35,114.89 L131.5,115.88 L131.36,116.62 L131.53,117.18 L131.34,118.19 L131.11,118.67 L130.41,119.22 L129.3,120.98 L128.42,121.78 L127.74,122.25 L127.29,123.2 L126.63,123.77 L126.19,124.4 L125.06,124.95 L124.33,124.75 L123.78,124.86 L122.86,124.43 L122.18,124.46 L121.57,123.91 L121.5,124.43 L122.77,125.29 L122.64,125.98 L123.26,126.41 L123.21,126.9 L122.25,128.18 L120.77,128.72 L118.76,128.93 L117.66,128.83 L117.87,129.42 L117.67,130.17 L117.85,130.68 L117.25,131.03 L116.23,131.17 L115.27,130.8 L114.88,131.06 L115.02,132.06 L115.7,132.36 L116.24,132.04 L116.54,132.56 L115.62,132.87 L114.82,133.5 L114.67,134.5 L114.43,135.04 L113.49,135.04 L112.71,135.55 L112.42,136.3 L113.4,137.03 L114.36,137.24 L114.01,138.13 L112.83,138.7 L112.18,139.87 L111.27,140.26 L110.86,140.73 L111.18,141.77 L111.85,142.35 L111.43,142.3 L110.54,142.29 L110.06,142.54 L109.15,142.9 L108.99,143.83 L108.57,143.86 L107.44,143.53 L106.3,142.84 L105.05,142.26 L104.74,141.63 L105.02,141.04 L104.52,140.38 L104.39,138.67 L104.82,137.71 L105.87,136.94 L104.36,136.65 L105.31,135.76 L105.65,134.1 L106.76,134.45 L107.28,132.38 L106.61,132.12 L106.3,133.37 L105.67,133.22 L105.98,131.79 L106.32,129.94 L106.78,129.26 L106.49,128.28 L106.41,127.16 L106.83,127.12 L107.45,125.51 L108.14,123.91 L108.56,122.42 L108.33,120.92 L108.63,120.1 L108.51,118.86 L109.09,117.64 L109.28,115.71 L109.6,113.63 L109.91,111.39 L109.84,109.76 L109.63,108.35 L108.62,107.77 L108.54,107.36 L106.56,106.36 L104.76,105.27 L103.99,104.65 L103.58,103.82 L103.74,103.53 L102.89,102.22 L101.91,100.38 L100.96,98.39 L100.55,97.93 L100.24,97.19 L99.46,96.54 L98.75,96.14 L99.07,95.69 L98.59,94.74 L98.9,94.04 L99.7,93.4 L100.23,92.66 L100.01,92.22 L99.63,92.69 L99.03,92.25 L99.24,91.97 L99.07,91.06 L99.42,90.91 L99.6,90.28 L99.98,89.64 L99.91,89.23 L100.46,89.02 L101.14,88.62 L101.01,88.31 L101.38,88.23 L101.34,87.73 L101.57,87.37 L102.07,87.3 L102.49,86.67 L102.87,86.15 L102.5,85.91 L102.69,85.33 L102.47,84.42 L102.68,84.15 L102.52,83.31 L102.12,82.78 L101.79,82.49 L101.57,81.95 L101.82,81.68 L101.56,81.61 L101.38,81.28 L100.88,81 L100.44,81.07 L100.24,81.42 L99.84,81.67 L99.62,81.7 L99.52,81.91 L100,82.45 L99.72,82.58 L99.58,82.73 L99.11,82.78 L98.94,82.18 L98.81,82.35 L98.48,82.29 L98.28,81.89 L97.87,81.82 L97.61,81.71 L97.18,81.71 L97.15,81.93 L97.03,81.77 L96.49,81.55 L96.29,81.34 L96.4,81.17 L96.37,80.95 L96.09,80.71 L95.7,80.51 L95.35,80.38 L95.29,80.09 L95.02,79.91 L95.09,80.2 L94.89,80.44 L94.66,80.17 L94.34,80.07 L94.2,79.87 L94.21,79.56 L94.34,79.25 L94.06,79.1 L94.29,78.91 L93.94,78.6 L93.47,78.19 L93.25,77.86 L92.83,77.54 L92.33,77.09 L92.44,76.94 L92.61,77.09 L92.68,77.02 L92.51,76.7 L92.21,76.62 L92.1,76.85 L91.52,76.84 L91.16,76.74 L90.74,76.54 L90.19,76.48 L89.9,76.26 L89.39,76.09 L88.77,76.07 L88.31,75.87 L87.77,75.46 L86.64,74.38 L86.12,74.06 L85.31,73.8 L84.75,73.87 L83.95,74.25 L83.44,74.35 L82.74,74.08 L81.99,73.89 L81.05,73.43 L80.3,73.29 L79.17,72.83 L78.33,72.35 L78.08,72.08 L77.52,72.02 L76.5,71.71 L76.08,71.25 L75.01,70.68 L74.51,70.05 L74.27,69.57 L74.6,69.47 L74.5,69.18 L74.73,68.92 L74.73,68.58 L74.4,68.13 L74.31,67.73 L73.97,67.23 L73.09,66.23 L72.08,65.45 L71.6,64.83 L70.74,64.42 L70.56,64.18 L70.71,63.56 L70.2,63.32 L69.61,62.84 L69.36,62.14 L68.82,62.06 L68.24,61.53 L67.77,61.05 L67.73,60.73 L67.19,59.98 L66.84,59.21 L66.85,58.83 L66.13,58.43 L65.79,58.48 L65.22,58.2 L65.06,58.61 L65.23,59.09 L65.33,59.84 L65.67,60.25 L66.41,60.94 L66.58,61.17 L66.73,61.25 L66.86,61.59 L67.04,61.57 L67.24,62.22 L67.54,62.47 L67.76,62.83 L68.38,63.34 L68.72,64.27 L69.01,64.71 L69.29,65.17 L69.34,65.7 L69.83,65.73 L70.23,66.19 L70.59,66.64 L70.57,66.81 L70.15,67.18 L69.97,67.18 L69.71,66.57 L69.05,66 L68.33,65.52 L67.82,65.26 L67.85,64.53 L67.7,63.99 L67.22,63.68 L66.54,63.23 L66.4,63.36 L66.15,63.1 L65.53,62.86 L64.94,62.28 L65.02,62.2 L65.43,62.26 L65.8,61.88 L65.84,61.43 L65.07,60.72 L64.48,60.44 L64.11,59.82 L63.74,59.16 L63.28,58.36 L62.87,57.46 L62.7,56.95 L62.06,56.38 L61.59,56.26 L61.48,55.97 L60.92,55.92 L60.56,55.65 L59.63,55.55 L59.38,55.39 L59.26,54.84 L58.29,53.84 L57.45,52.45 L57.49,52.22 L57.05,51.89 L56.27,51.05 L56.13,50.23 L55.6,49.69 L55.82,48.86 L55.79,48 L55.47,47.23 L55.86,46.29 L56.1,44.48 L55.92,43.14 L55.6,42.28 L55.31,41.82 L55.43,41.62 L56.88,41.96 L57.41,42.9 L57.66,42.64 L57.5,41.82 L57.16,41 L57.03,41 L55.09,40.02 L54.38,39.58 L52.56,39.17 L52.01,38.28 L52.15,37.67 L50.87,37.24 L50.69,36.44 L49.49,35.71 L49.46,35.2 L48.91,34.82 L48.03,34.5 L47.75,33.63 L46.46,32.82 L45.92,31.88 L44.96,31.81 L43.37,31.79 L42.2,31.5 L40.13,30.46 L39.17,30.27 L37.43,29.92 L36.04,30 L34.07,29.54 L32.89,29.12 L31.78,29.33 L31.98,30.02 L31.43,30.09 L30.27,30.29 L29.39,30.63 L28.28,30.84 L28.14,30.25 L28.59,29.27 L29.65,28.97 L29.38,28.72 L28.1,29.27 L27.42,29.94 L25.98,30.65 L26.71,31.14 L25.77,31.85 L24.69,32.27 L23.69,32.58 L23.44,33.02 L21.88,33.54 L21.57,34.01 L20.4,34.43 L19.71,34.36 L18.78,34.64 L17.76,34.98 L16.93,35.31 L15.21,35.6 L15.06,35.43 L16.15,34.96 L17.13,34.65 L18.2,34.1 L19.44,33.99 L19.93,33.58 L21.32,32.98 L21.54,32.78 L22.28,32.43 L22.45,31.67 L22.96,31.08 L21.81,31.38 L21.48,31.21 L20.94,31.58 L20.29,31.07 L20.02,31.43 L19.64,30.93 L18.65,31.33 L18.03,31.33 L17.95,30.73 L18.13,30.37 L17.48,30.01 L16.18,30.2 L15.34,29.73 L14.65,29.49 L14.65,28.93 L13.88,28.5 L14.27,27.92 L15.08,27.37 L15.44,26.85 L16.25,26.78 L16.93,26.94 L17.74,26.46 L18.47,26.54 L19.23,26.23 L19.04,25.78 L18.48,25.6 L19.22,25.21 L18.61,25.22 L17.55,25.44 L17.24,25.66 L16.45,25.44 L15.04,25.55 L13.57,25.31 L13.16,24.91 L11.89,24.33 L13.29,23.91 L15.53,23.42 L16.35,23.42 L16.21,23.92 L18.32,23.88 L17.51,23.26 L16.28,22.88 L15.57,22.38 L14.61,21.96 L13.24,21.64 L13.8,21.12 L15.57,21.08 L16.83,20.63 L17.07,20.14 L18.09,19.67 L19.07,19.55 L20.96,19.11 L21.88,19.18 L23.42,18.64 L24.93,18.85 L25.66,19.3 L26.1,19.11 L27.79,19.17 L27.73,19.4 L29.26,19.57 L30.28,19.47 L32.39,19.79 L34.31,19.88 L35.08,20.01 L36.41,19.85 L37.93,20.15 L39.01,20.29 L40.88,20.53 L42.45,21.01 L43.5,21.1 L44.37,20.68 L45.59,20.37 L47.07,20.49 L48.57,20.06 L50.21,19.81 L50.89,20.22 L51.64,19.99 L51.86,19.52 L52.55,19.62 L54.24,20.52 L55.58,19.84 L55.71,20.6 L56.94,20.44 L57.32,20.14 L58.53,20.2 L60.06,20.62 L62.4,20.99 L63.77,21.16 L64.75,21.09 L66.1,21.6 L64.7,22.1 L66.5,22.31 L69.2,22.19 L70.05,22.02 L71.12,22.62 L72.21,22.11 L71.19,21.69 L71.83,21.35 L73.05,21.3 L73.85,21.2 L74.66,21.44 L75.66,21.98 L76.78,21.9 L78.55,22.35 L80.1,22.19 L81.56,22.22 L81.44,21.6 L82.33,21.42 L83.88,21.76 L83.87,22.71 L84.51,21.91 L85.32,21.94 L85.77,20.93 L84.7,20.31 L83.53,19.91 L83.61,18.81 L84.79,18.08 L86.11,18.24 L87.12,18.68 L88.48,19.81 L87.59,20.3 L89.45,20.5Z"/>
<path d="M65.83,16.88 L65.33,17.35 L67.56,17.04 L68.95,17.55 L70.08,17.04 L70.99,17.37 L71.81,18.35 L72.31,17.93 L71.6,16.91 L72.48,16.76 L73.48,16.92 L74.6,17.33 L75.23,18.3 L75.54,19.01 L77.21,19.5 L79.02,19.98 L78.91,20.42 L77.27,20.5 L77.91,20.88 L77.57,21.25 L75.76,21.09 L74.04,20.82 L72.88,20.88 L71,21.22 L68.03,21.4 L66.69,21.46 L66.15,20.99 L64.78,20.72 L63.89,20.83 L62.66,20.04 L63.33,19.93 L64.87,19.76 L66.28,19.81 L67.58,19.63 L65.65,19.4 L63.51,19.48 L62.1,19.46 L61.57,19.09 L63.89,18.69 L62.34,18.7 L60.6,18.44 L61.44,17.69 L62.13,17.29 L64.81,16.69 L65.83,16.88Z"/>
<path d="M75.5,16.58 L74.62,17.24 L73.06,16.54 L73.4,16.4 L74.74,16.36 L75.5,16.58Z"/>
<path d="M103.66,16.9 L103.75,17.17 L102.69,17.14 L101.61,17.12 L100.51,17.26 L100.22,17.2 L99.12,16.67 L99.17,16.31 L99.65,16.24 L101.94,16.35 L103.66,16.9Z"/>
<path d="M93.44,16.84 L94.23,17.47 L95.15,16.66 L97.68,16.25 L99.4,17.28 L99.25,17.94 L101.23,17.65 L102.18,17.25 L104.39,17.76 L105.77,18.23 L105.9,18.67 L107.76,18.44 L108.8,19.08 L111.21,19.47 L112.09,19.88 L113.03,20.81 L111.19,21.28 L113.55,21.93 L115.14,22.15 L116.58,23.07 L118.15,23.14 L117.84,23.84 L116.08,25 L114.85,24.57 L113.28,23.61 L111.98,23.74 L111.86,24.31 L112.91,24.89 L114.27,25.35 L114.68,25.62 L115.33,26.61 L114.99,27.33 L113.72,27.05 L111.22,26.25 L112.63,27.12 L113.67,27.72 L113.83,28.07 L111.12,27.67 L108.98,27.09 L107.76,26.6 L108.11,26.32 L106.62,25.81 L105.17,25.32 L105.18,25.61 L102.29,25.77 L101.44,25.43 L102.1,24.69 L103.98,24.67 L106.04,24.55 L105.71,24.19 L106.06,23.69 L107.35,22.72 L107.07,22.27 L106.69,21.93 L105.16,21.45 L103.13,21.11 L103.77,20.85 L102.71,20.23 L101.83,20.17 L101.04,19.83 L100.51,20.13 L98.69,20.26 L95.06,20.03 L92.94,19.74 L91.32,19.59 L90.49,19.24 L91.53,18.78 L90.11,18.78 L89.79,17.76 L90.56,16.87 L91.59,16.46 L94.17,16.2 L93.44,16.84Z"/>
<path d="M79.64,16.16 L80.84,16.37 L82.62,16.24 L82.88,16.53 L81.95,17.01 L83.46,17.44 L83.28,18.34 L81.64,18.73 L80.68,18.64 L79.99,18.26 L77.5,17.49 L77.52,17.17 L79.56,17.29 L78.46,16.64 L79.64,16.16Z"/>
<path d="M323.6,16.79 L322.09,16.79 L320.04,16.68 L319.86,16.63 L320.81,16.23 L322.06,16.14 L323.48,16.52 L323.6,16.79Z"/>
<path d="M86.8,17.23 L85.73,17.98 L84.59,17.94 L83.97,17.06 L83.98,16.56 L84.5,16.14 L85.5,15.87 L87.58,15.9 L89.49,16.14 L88,17.03 L86.8,17.23Z"/>
<path d="M59.54,18.6 L56.91,19.1 L56.38,18.66 L54.07,18.13 L54.41,17.81 L55.19,16.98 L56.06,16.32 L55.08,15.71 L58.46,15.55 L59.89,15.76 L62.44,15.81 L63.42,16.1 L64.49,16.52 L63.23,16.78 L60.78,17.48 L59.54,18.18 L59.54,18.6Z"/>
<path d="M330.73,14.92 L329.58,15.31 L327.98,15.22 L326.12,14.83 L326.36,14.5 L328.22,14.65 L330.73,14.92Z"/>
<path d="M86.39,15.02 L85.84,15.41 L84.39,15.33 L83.18,15.07 L83.71,14.62 L85.15,14.35 L86.02,14.7 L86.39,15.02Z"/>
<path d="M325.09,14.44 L324.3,15.18 L320.61,15.15 L318.96,15.39 L316.97,14.74 L317.51,14.05 L318.83,13.86 L321.47,13.91 L325.09,14.44Z"/>
<path d="M81.5,13.28 L82.26,13.74 L82.3,14.26 L81.84,15 L80.19,15.1 L79.12,14.94 L79.14,14.36 L77.5,14.44 L77.43,13.66 L78.51,13.69 L80.02,13.35 L81.42,13.41 L81.5,13.28Z"/>
<path d="M71.79,13.8 L72.18,14.15 L73.07,13.99 L74.12,14.03 L74.3,14.52 L73.69,14.99 L70.3,15.15 L67.78,15.58 L66.26,15.61 L66.13,15.28 L68.21,14.84 L63.69,14.96 L62.29,14.78 L63.65,13.8 L64.6,13.52 L67.41,13.86 L69.19,14.45 L70.93,14.53 L69.5,13.57 L70.42,13.21 L71.45,13.32 L71.79,13.8Z"/>
<path d="M237.54,19.28 L236.94,19.37 L233.68,19.24 L233.41,18.79 L231.6,18.53 L231.46,17.99 L232.48,17.77 L232.44,17.23 L234.43,16.37 L233.51,16.25 L235.9,15.37 L235.63,14.92 L237.87,14.39 L241.17,13.75 L244.5,13.56 L246.21,13.19 L248.16,13.06 L248.85,13.46 L248.18,13.77 L244.64,14.26 L241.58,14.74 L238.48,15.69 L236.99,16.67 L235.42,17.63 L235.62,18.46 L237.54,19.28Z"/>
<path d="M85.32,12.9 L86.43,13.22 L88.39,13.22 L89.26,13.55 L89.03,13.93 L90.18,14.15 L90.81,14.39 L92.16,14.43 L93.62,14.52 L95.21,14.3 L97.25,14.22 L98.87,14.29 L99.94,14.66 L100.17,15.08 L99.54,15.34 L98.05,15.56 L96.77,15.44 L93.9,15.59 L91.85,15.61 L90.24,15.48 L87.58,15.16 L87.23,14.61 L87.11,14.12 L86.11,13.68 L84.04,13.56 L82.88,13.25 L83.25,12.84 L85.32,12.9Z"/>
<path d="M63.8,12.35 L63.66,13.12 L62.89,13.47 L61.96,13.52 L60.1,13.95 L58.5,14.1 L57.15,13.88 L58.84,13.14 L60.9,12.49 L62.43,12.5 L63.8,12.35Z"/>
<path d="M286.97,13.03 L287.24,13.52 L288.15,13.28 L291.08,13.29 L293.33,13.78 L294.13,14.15 L293.89,14.67 L292.78,14.97 L290.15,15.52 L289.4,15.82 L290.64,15.96 L292.12,16.21 L293.02,16.02 L293.53,16.66 L293.97,16.41 L295.57,16.25 L298.78,16.41 L299.02,16.88 L303.2,17.03 L303.26,16.26 L305.38,16.44 L306.98,16.43 L308.59,16.96 L309.05,17.6 L308.46,18.02 L309.72,18.81 L311.29,19.21 L312.25,18.16 L313.86,18.61 L315.56,18.34 L317.5,18.65 L318.23,18.37 L319.87,18.51 L319.15,17.58 L320.47,17.15 L329.5,17.8 L330.35,18.39 L332.97,19.16 L337.01,18.97 L339,19.13 L339.83,19.55 L339.71,20.28 L340.94,20.56 L342.28,20.36 L344.05,20.33 L345.94,20.53 L347.84,20.42 L349.58,21.31 L350.82,20.99 L350.01,20.35 L350.45,19.9 L353.64,20.18 L355.72,20.12 L358.6,20.6 L360,21.04 L360,25.02 L359.99,25.03 L358.71,25.47 L357.41,25.39 L358.31,25.92 L358.91,26.75 L359.37,27.02 L359.49,27.43 L359.23,27.7 L357.36,27.48 L354.57,28.23 L353.68,28.35 L352.15,29.05 L350.7,29.66 L350.33,30.12 L348.9,29.43 L346.3,30.21 L345.84,29.84 L344.88,30.27 L343.54,30.13 L343.22,30.79 L342.02,31.76 L342.05,32.16 L343.19,32.38 L343.06,33.84 L342.13,33.88 L341.7,34.71 L342.12,35.14 L340.37,35.66 L340.02,36.8 L338.53,37.04 L338.23,38.06 L336.79,38.99 L336.42,38.3 L335.99,36.84 L335.43,34.62 L335.91,33.23 L336.76,32.64 L336.81,32.17 L338.36,31.94 L340.15,30.69 L341.87,29.66 L343.67,28.86 L344.47,27.45 L343.26,27.53 L342.66,28.36 L340.12,29.46 L339.3,28.23 L336.72,28.57 L334.22,30.24 L335.04,30.85 L332.81,31.12 L331.27,31.22 L331.34,30.5 L329.78,30.34 L328.54,30.84 L325.49,30.66 L322.2,30.96 L318.96,32.91 L315.13,35.27 L316.7,35.4 L317.19,36.02 L318.16,36.24 L318.8,35.75 L319.9,35.81 L321.35,36.91 L321.38,37.76 L320.6,38.76 L320.51,39.95 L320.06,41.55 L318.55,43 L318.22,43.69 L316.86,44.86 L315.52,46.01 L314.87,46.6 L313.54,47.19 L312.91,47.2 L312.28,46.72 L310.94,47.45 L310.78,47.78 L310.4,47.72 L309.97,48.06 L309.67,48.4 L309.71,49.12 L309.19,49.34 L309.01,49.51 L308.63,49.81 L307.97,49.97 L307.53,50.24 L307.5,50.68 L307.39,50.79 L307.78,50.95 L308.35,51.39 L309.21,52.57 L309.46,53.22 L309.47,54.37 L309.09,54.92 L308.19,55.11 L307.39,55.52 L306.49,55.61 L306.37,55.07 L306.56,54.32 L306.12,53.27 L306.86,53.11 L306.17,52.25 L305.69,52.06 L305.57,52.25 L305.28,52.33 L305.24,52.14 L304.98,52.05 L304.71,51.89 L304.99,51.45 L305.22,51.33 L305.13,51.15 L305.39,50.61 L305.32,50.45 L304.74,50.34 L304.27,50.07 L302.87,50.36 L302.13,50.83 L301.05,51.1 L301.59,50.64 L301.38,50.25 L302.17,49.58 L301.64,49.05 L300.77,49.41 L299.64,50.1 L299.02,50.75 L298.04,50.8 L297.53,51.26 L298.06,51.94 L298.88,52.1 L298.91,52.55 L299.7,52.84 L300.82,52.13 L301.71,52.52 L302.36,52.55 L302.52,53.07 L301.1,53.35 L300.64,53.89 L299.66,54.39 L299.15,55.09 L300.23,55.64 L300.62,56.62 L301.23,57.54 L301.91,58.31 L301.89,59.05 L301.26,59.32 L301.5,59.86 L302.09,60.17 L301.94,60.98 L301.68,61.77 L301.13,61.86 L300.4,62.95 L299.59,64.26 L298.66,65.45 L297.28,66.38 L295.89,67.22 L294.76,67.33 L294.15,67.78 L293.81,67.45 L293.24,67.95 L291.84,68.45 L290.79,68.6 L290.44,69.66 L289.89,69.72 L289.63,68.99 L289.86,68.6 L288.52,68.28 L288.05,68.45 L286.72,69.3 L285.88,70.25 L285.66,70.94 L286.43,72 L287.36,73.3 L288.27,73.92 L288.88,74.72 L289.34,76.57 L289.2,78.33 L288.37,78.99 L287.22,79.64 L286.41,80.47 L285.16,81.4 L284.8,80.76 L285.08,80.08 L284.33,79.51 L283.5,79.37 L283.09,78.85 L282.59,77.81 L281.69,77.35 L280.83,77.37 L280.98,76.59 L280.1,76.59 L280.02,77.69 L279.48,79.15 L279.15,80.04 L279.22,80.76 L279.87,80.79 L280.28,81.7 L280.46,82.57 L281.02,83.14 L281.62,83.26 L282.14,83.78 L282.37,83.87 L282.96,84.48 L283.38,85.14 L283.44,85.82 L283.33,86.27 L283.43,86.62 L283.5,87.21 L283.85,87.48 L284.25,88.37 L284.23,88.71 L283.52,88.77 L282.57,88.03 L281.39,87.24 L281.27,86.73 L280.7,86.06 L280.56,85.23 L280.2,84.69 L280.31,83.96 L280.09,83.54 L279.69,83.15 L279.52,82.66 L278.99,82.09 L278.5,81.62 L278.34,82.21 L278.15,81.65 L278.26,81.03 L278.55,80.07 L278.46,79.32 L278.76,78.56 L278.43,77.97 L278.51,76.88 L278.1,76.36 L277.78,75.16 L277.6,73.9 L277.16,73.07 L276.51,73.57 L275.37,74.29 L274.81,74.2 L274.19,73.96 L274.53,72.72 L274.32,71.79 L273.54,70.63 L273.66,70.27 L273.08,70.14 L272.37,69.33 L272.08,68.81 L272.03,68.3 L271.83,67.82 L271.42,67.23 L270.5,67.19 L270.59,67.61 L270.27,68.16 L269.85,67.96 L269.7,68.14 L269.42,68.03 L269.03,67.94 L268.89,68.31 L268.21,68.3 L266.98,68.5 L267.03,69.26 L266.5,69.85 L265.06,70.52 L263.94,71.7 L263.19,72.33 L262.19,72.98 L262.19,73.44 L261.69,73.69 L260.79,74.05 L260.32,74.1 L260.03,74.86 L260.23,76.16 L260.29,76.99 L259.86,77.94 L259.86,79.64 L259.34,79.69 L258.89,80.45 L259.19,80.78 L258.28,81.07 L257.94,81.75 L257.54,82.03 L256.59,81.1 L256.13,79.7 L255.75,78.69 L255.4,78.22 L254.86,77.26 L254.62,76.01 L254.44,75.38 L253.53,74.01 L253.12,72.07 L252.82,70.79 L252.82,69.58 L252.63,68.64 L251.18,69.24 L250.47,69.12 L249.16,67.91 L249.64,67.55 L249.35,67.16 L248.18,66.31 L247.44,66.06 L247.15,65.34 L246.37,64.57 L244.53,64.76 L242.91,64.78 L241.5,64.92 L239.62,64.62 L238.53,64.39 L237.4,64.26 L236.97,63.03 L236.49,62.86 L235.72,63.04 L234.72,63.52 L233.49,63.19 L232.48,62.42 L231.52,62.13 L230.85,61.19 L230.12,59.85 L229.58,60.01 L228.94,59.68 L228.57,60.07 L227.97,60.02 L228.18,60.47 L228.09,60.69 L228.42,61.45 L228.81,62.31 L229.3,62.54 L229.47,62.89 L230.15,63.31 L230.21,63.72 L230.11,64.06 L230.24,64.39 L230.53,64.67 L230.66,65 L230.81,65.25 L230.74,64.52 L231.01,63.99 L231.29,63.89 L231.59,64.2 L231.61,64.78 L231.39,65.37 L231.58,65.75 L231.76,65.71 L231.79,65.98 L232.58,65.82 L233.4,65.85 L234.01,65.88 L234.69,65.2 L235.44,64.56 L236.07,63.94 L236.36,63.6 L236.49,63.69 L236.39,64.1 L236.26,64.29 L236.4,65.08 L236.85,65.76 L237.4,66.12 L238.14,66.25 L238.73,66.43 L239.18,67.01 L239.45,67.34 L239.81,67.47 L239.81,67.69 L239.44,68.29 L239.28,68.57 L238.86,68.89 L238.49,69.57 L238.03,69.52 L237.83,69.76 L237.67,70.26 L237.79,70.93 L237.69,71.06 L237.23,71.05 L236.61,71.43 L236.51,71.91 L236.28,72.12 L235.66,72.12 L235.27,72.37 L235.27,72.77 L234.79,73.05 L234.24,72.95 L233.57,73.29 L233.11,73.35 L232.39,73.62 L232.19,74.06 L232.17,74.4 L231.17,74.82 L229.57,75.29 L228.68,76 L228.24,76.05 L227.94,75.99 L227.35,76.41 L226.72,76.6 L225.88,76.65 L225.63,76.71 L225.41,76.97 L225.14,77.05 L224.99,77.3 L224.49,77.28 L224.18,77.41 L223.48,77.36 L223.22,76.78 L223.25,76.23 L223.09,75.94 L222.89,75.2 L222.6,74.79 L222.81,74.74 L222.7,74.28 L222.82,74.09 L222.78,73.65 L222.65,73.23 L222.35,72.92 L222.27,72.53 L221.75,72.17 L221.22,71.33 L220.94,70.51 L220.25,69.83 L219.8,69.66 L219.14,68.71 L219.02,68.01 L219.07,67.42 L218.49,66.31 L218.02,65.92 L217.48,65.71 L217.15,65.14 L217.21,64.92 L216.93,64.4 L216.64,64.17 L216.25,63.43 L215.64,62.62 L215.13,61.94 L214.63,61.94 L214.79,61.39 L214.83,61.04 L214.96,60.64 L214.92,60.5 L214.64,60.9 L214.43,61.66 L214.15,62.18 L213.92,62.35 L213.59,62.03 L213.14,61.58 L212.42,60.15 L212.32,60.24 L212.73,61.29 L213.35,62.3 L214.1,63.86 L214.47,64.4 L214.8,64.97 L215.69,66.07 L215.49,66.25 L215.53,66.9 L216.69,67.8 L216.87,68 L217.19,68.98 L216.97,69.16 L217.11,70.19 L217.48,71.39 L217.86,71.63 L218.41,72 L218.99,73.16 L219.27,74.08 L219.81,74.56 L221.18,75.51 L221.73,76.08 L222.28,76.66 L222.59,77 L223.08,77.3 L223.32,77.61 L223.29,78.03 L222.72,78.26 L223.15,78.54 L223.47,78.72 L223.67,79.14 L224.12,79.55 L224.61,79.56 L225.56,79.3 L226.65,79.18 L227.53,78.87 L228.02,78.81 L228.38,78.62 L228.95,78.59 L229.27,78.57 L229.73,78.42 L230.26,78.32 L230.73,77.98 L231.11,77.98 L231.13,78.25 L231.04,78.83 L231.05,79.36 L230.83,79.72 L230.55,80.8 L230.07,81.92 L229.45,83.2 L228.59,84.66 L227.74,85.78 L226.56,87.14 L225.56,87.95 L224.07,88.95 L223.14,89.71 L222.04,90.92 L221.81,91.45 L221.59,91.68 L220.88,92.08 L220.64,92.5 L220.26,92.57 L220.12,93.28 L219.8,93.68 L219.6,94.35 L219.2,94.68 L218.74,95.91 L218.8,96.48 L219.44,96.84 L219.47,97.1 L219.19,97.7 L219.25,98.01 L219.19,98.49 L219.54,99.11 L219.95,100.1 L220.32,100.32 L220.48,100.77 L220.44,101.76 L220.56,102.64 L220.6,104.2 L220.78,104.69 L220.48,105.41 L220.09,106.1 L219.45,106.72 L218.54,107.1 L217.41,107.59 L216.28,108.66 L215.9,108.84 L215.2,109.55 L214.79,109.78 L214.7,110.5 L215.18,111.25 L215.37,111.84 L215.39,112.14 L215.56,112.09 L215.53,113.07 L215.37,113.54 L215.61,113.71 L215.46,114.12 L215.04,114.48 L214.22,114.82 L213.01,115.36 L212.57,115.73 L212.66,116.15 L212.92,116.22 L212.83,116.74 L212.58,117.47 L212.46,118.3 L212.2,118.75 L211.52,119.26 L211.33,119.4 L210.9,119.91 L210.62,120.42 L210.06,121.14 L208.93,122.17 L208.22,122.77 L207.46,123.23 L206.42,123.61 L205.91,123.67 L205.78,123.94 L205.17,123.8 L204.68,123.99 L203.59,123.79 L202.99,123.92 L202.57,123.86 L201.54,124.26 L200.69,124.42 L200.07,124.8 L199.62,124.82 L199.19,124.46 L198.86,124.44 L198.42,124 L198.38,124.14 L198.24,123.87 L198.25,123.28 L197.93,122.61 L198.25,122.43 L198.22,121.66 L197.57,120.73 L197.06,119.88 L196.35,118.58 L195.6,117.82 L195.21,117.09 L194.99,116.12 L194.74,115.39 L194.41,113.85 L194.39,112.66 L194.26,112.11 L193.87,111.7 L193.35,110.87 L192.83,109.67 L192.61,109.05 L191.79,108.07 L191.73,107.3 L191.64,106.67 L191.78,105.79 L192.12,104.88 L192.18,104.45 L192.5,103.55 L192.74,103.14 L193.31,102.48 L193.63,102.04 L193.74,101.3 L193.69,100.73 L193.39,100.37 L193.12,99.77 L192.88,99.17 L192.93,98.96 L193.24,98.56 L192.93,97.6 L192.73,96.93 L192.23,96.29 L192.32,96.1 L192.18,95.79 L191.92,95.04 L191.09,93.98 L190.07,92.97 L189.41,92.14 L188.8,91.11 L188.83,90.78 L189.05,90.46 L189.29,89.73 L189.49,88.99 L189.31,88.84 L189.65,87.72 L189.8,86.93 L189.4,86.27 L188.95,86.1 L188.74,85.65 L188.49,85.5 L188.5,85.23 L187.46,85.59 L187.08,85.54 L186.7,85.76 L185.9,85.74 L185.36,85.11 L185.03,84.39 L184.33,83.73 L183.57,83.74 L182.69,83.74 L181.87,83.86 L181.06,84.07 L179.49,84.66 L178.94,85 L178.04,85.29 L177.14,85.01 L176.69,85.02 L175.99,84.82 L175.35,84.83 L174.17,85.01 L173.47,85.29 L172.48,85.66 L172.29,85.64 L172.03,85.64 L171,85.17 L170.09,84.41 L169.23,83.86 L168.56,83.21 L168.29,83.14 L167.57,82.74 L167.05,82.2 L166.88,81.84 L166.75,81.1 L166.31,80.51 L165.93,80.11 L165.67,79.98 L165.42,79.79 L165.31,79.34 L165.16,79.12 L164.87,78.96 L164.34,78.54 L163.91,78.48 L163.69,78.19 L163.69,78.04 L163.39,77.83 L163.32,77.62 L163.16,76.85 L163.29,76.4 L162.87,75.63 L162.38,75.27 L162.81,75.08 L163.3,74.38 L163.54,73.86 L163.45,73.33 L163.73,72.83 L163.85,71.89 L163.74,70.9 L163.62,70.41 L163.72,69.91 L163.46,69.43 L162.94,69 L162.98,68.58 L163.03,68.11 L163.41,67.84 L163.74,67.32 L163.67,66.98 L164.02,66.28 L164.57,65.64 L164.91,65.48 L165.18,64.9 L165.2,64.36 L165.56,63.75 L166.23,63.38 L166.86,62.36 L167.38,61.96 L168.31,61.85 L169.1,61.17 L169.6,60.9 L170.44,60.07 L170.19,58.82 L170.57,57.96 L170.7,57.44 L171.34,56.76 L172.35,56.3 L173.09,55.89 L173.76,54.85 L174.07,54.24 L174.81,54.24 L175.41,54.67 L176.36,54.6 L177.4,54.82 L177.83,54.83 L178.79,54.29 L179.87,54.11 L180.5,53.7 L181.47,53.39 L183.16,53.22 L184.82,53.13 L185.32,53.28 L186.26,52.89 L187.33,52.88 L187.74,53.11 L188.42,53.05 L189.51,52.65 L190.21,52.77 L190.18,53.28 L191.03,52.91 L191.1,53.1 L190.6,53.59 L190.59,54.05 L190.94,54.3 L190.81,55.17 L190.15,55.67 L190.34,56.21 L190.86,56.23 L191.11,56.71 L191.49,56.86 L192.66,57.21 L193.08,57.12 L193.92,57.29 L195.25,57.73 L195.71,58.62 L196.61,58.82 L198.02,59.24 L199.09,59.73 L199.57,59.47 L200.05,59.01 L199.82,58.25 L200.13,57.76 L200.85,57.29 L201.54,57.16 L202.9,57.36 L203.24,57.81 L203.61,57.81 L203.93,57.98 L204.92,58.1 L205.16,58.43 L206.5,58.41 L207.46,58.68 L208.45,58.97 L208.91,59.13 L209.68,58.81 L210.1,58.53 L210.98,58.44 L211.69,58.57 L211.96,59.07 L212.19,58.74 L212.99,58.98 L213.77,59.03 L214.27,58.78 L214.56,58.45 L214.49,58.39 L214.75,57.93 L214.96,57.17 L215.1,56.92 L215.13,56.91 L215.48,56.09 L215.98,55.39 L216,55.36 L215.91,54.59 L216.15,54.18 L215.78,53.72 L216.16,53.35 L215.55,53.43 L214.71,53.2 L214.03,53.78 L212.51,53.89 L211.7,53.36 L210.62,53.32 L210.39,53.74 L209.7,53.86 L208.73,53.32 L207.64,53.34 L207.05,52.35 L206.32,51.79 L206.8,51.01 L206.17,50.54 L207.28,49.58 L208.82,49.54 L209.24,48.78 L211.15,48.91 L212.35,48.26 L213.51,47.98 L215.17,47.96 L216.91,48.66 L218.35,49.05 L219.51,48.9 L220.37,48.99 L221.55,48.46 L221.7,48.04 L221.45,47.35 L220.88,46.99 L220.32,46.87 L219.96,46.56 L218.68,45.72 L217.54,45.34 L216.68,44.76 L217.4,44.6 L218.23,43.76 L217.67,43.36 L219.15,42.96 L219.12,42.74 L218.22,42.9 L217.43,42.98 L216.76,43.3 L215.82,43.35 L214.96,43.73 L215.02,44.35 L215.51,44.59 L216.53,44.53 L216.33,44.89 L215.24,45.06 L213.88,45.64 L213.33,45.44 L213.55,44.97 L212.45,44.67 L212.63,44.48 L213.59,44.15 L213.3,43.92 L211.74,43.67 L211.68,43.29 L210.75,43.42 L210.38,43.97 L209.6,44.71 L209.63,44.96 L209.14,45.18 L208.84,45.09 L208.56,46.29 L208.04,46.71 L207.67,47.42 L208,47.99 L208.12,48.38 L208.99,48.7 L208.81,48.95 L207.62,49 L207.19,49.31 L206.36,49.85 L206.04,49.38 L206.06,49.18 L205.45,49.15 L204.93,49.05 L203.71,49.31 L204.41,49.87 L203.9,50.04 L203.34,50.04 L202.81,49.52 L202.63,49.74 L202.85,50.34 L203.35,50.81 L202.97,51.03 L203.53,51.49 L204.03,51.78 L204.04,52.34 L203.12,52.08 L203.41,52.59 L202.78,52.69 L203.15,53.58 L202.49,53.59 L201.67,53.15 L201.3,52.35 L201.12,51.69 L200.73,51.23 L200.22,50.66 L200.15,50.37 L199.98,50.3 L199.96,50.08 L199.41,49.75 L199.32,49.27 L199.4,48.59 L199.54,48.28 L199.37,48.12 L199.16,48.04 L198.88,47.72 L198.45,47.52 L197.51,47.15 L196.93,46.79 L196.02,46.49 L195.17,45.76 L195.38,45.68 L194.92,45.26 L194.9,44.92 L194.26,44.77 L193.95,45.2 L193.66,44.86 L193.68,44.52 L193.72,44.5 L193.94,44.41 L193.14,44.26 L192.33,44.62 L192.38,45.11 L192.26,45.4 L192.59,45.91 L193.53,46.41 L194.03,47.24 L195.14,48.04 L195.93,48.04 L196.17,48.26 L195.89,48.46 L196.79,48.82 L197.52,49.12 L198.38,49.64 L198.48,49.83 L198.29,50.19 L197.74,49.72 L196.87,49.56 L196.45,50.2 L197.17,50.58 L197.05,51.1 L196.64,51.16 L196.1,52.01 L195.68,52.09 L195.69,51.79 L195.89,51.25 L196.11,51.04 L195.72,50.46 L195.41,49.95 L195,49.83 L194.7,49.4 L194.06,49.21 L193.63,48.81 L192.89,48.75 L192.11,48.3 L191.19,47.64 L190.51,47.07 L190.2,46.08 L189.7,45.96 L188.89,45.63 L188.43,45.77 L187.85,46.23 L187.44,46.31 L186.53,46.87 L184.56,46.6 L183.1,46.92 L182.99,47.53 L183.04,48.11 L182.09,48.77 L180.81,48.99 L180.72,49.32 L180.11,49.88 L179.72,50.69 L180.11,51.26 L179.53,51.71 L179.32,52.36 L178.56,52.56 L177.85,53.33 L176.58,53.34 L175.63,53.32 L175,53.68 L174.62,54.05 L174.13,53.97 L173.76,53.63 L173.48,53.06 L172.55,52.9 L172.14,53.16 L171.62,53.02 L171.1,53.13 L171.25,52.35 L171.16,51.73 L170.71,51.64 L170.47,51.26 L170.55,50.61 L170.95,50.24 L171.02,49.84 L171.23,49.24 L171.21,48.82 L171.01,48.46 L170.97,48.12 L171.02,47.41 L170.61,46.97 L172.02,46.25 L173.25,46.43 L174.59,46.43 L175.65,46.6 L176.48,46.54 L178.1,46.58 L178.62,45.98 L178.81,43.99 L177.77,42.94 L177.04,42.43 L175.51,42.04 L175.41,41.32 L176.7,41.1 L178.38,41.36 L178.07,40.22 L179.01,40.65 L181.34,39.87 L181.64,39.05 L182.51,38.85 L183.32,38.65 L183.83,38.38 L184.71,36.91 L186.07,36.49 L186.91,36.52 L187.1,36.31 L187.94,36.25 L188.12,36.47 L188.8,35.98 L188.57,35.6 L188.53,35.04 L188.12,34.48 L188.09,33.46 L188.26,33.19 L188.54,32.89 L189.42,32.83 L189.78,32.55 L190.58,32.27 L190.55,32.78 L190.25,33.11 L190.37,33.39 L190.91,33.54 L190.67,33.92 L190.37,33.81 L189.65,34.53 L189.92,35.02 L189.94,35.4 L190.95,35.64 L190.94,35.99 L191.96,35.8 L192.52,35.53 L193.65,35.92 L194.12,36.24 L194.8,35.95 L196.36,35.49 L197.62,35.15 L198.62,35.32 L198.7,35.56 L199.66,35.57 L199.89,35.13 L201.27,34.81 L201.06,33.97 L201.09,33.22 L201.58,32.59 L202.52,32.25 L203.32,32.99 L204.12,32.97 L204.31,32.21 L204.43,31.62 L204.06,31.74 L203.43,31.39 L203.34,30.81 L204.6,30.53 L205.86,30.39 L206.95,30.55 L207.98,30.52 L209.12,29.97 L208.07,29.5 L206.26,29.58 L204.5,29.94 L202.87,30.15 L202.29,29.61 L201.32,29.28 L201.54,28.29 L201.06,27.39 L201.54,26.81 L202.44,26.18 L204.73,25.1 L205.4,24.89 L205.29,24.47 L203.9,23.99 L202.18,24.28 L201.21,24.97 L201.37,25.59 L199.78,26.39 L197.85,27.25 L197.12,28.66 L197.83,29.36 L198.79,29.92 L197.87,31.05 L196.83,31.28 L196.45,32.96 L195.88,33.9 L194.67,33.8 L194.1,34.59 L192.94,34.64 L192.63,33.69 L191.79,32.56 L191.03,31.14 L190.36,30.53 L188.38,31.69 L187.05,31.92 L185.67,31.41 L185.31,30.34 L184.99,28.03 L185.91,27.39 L188.55,26.55 L190.53,25.51 L192.36,24.12 L194.76,22.19 L196.44,21.44 L199.18,20.18 L201.38,19.74 L203.02,19.8 L204.55,18.97 L206.37,19.01 L208.17,18.81 L211.29,19.55 L210.01,19.81 L211.1,20.44 L212.13,20.09 L213.78,20.7 L216.51,20.94 L220.29,22.07 L221.06,22.54 L221.13,23.21 L220.02,23.73 L218.38,24 L213.92,23.24 L213.18,23.37 L214.81,24.1 L214.94,25.59 L216.23,25.89 L217.01,26.15 L217.14,25.67 L216.52,25.22 L217.18,24.86 L219.59,25.48 L220.44,25.24 L219.76,24.5 L222.09,23.52 L223.02,23.58 L223.95,23.93 L224.53,23.24 L223.7,22.65 L224.19,22.05 L223.45,21.43 L226.25,21.75 L226.82,22.31 L225.56,22.43 L225.56,22.99 L226.35,23.33 L227.89,23.12 L228.14,22.48 L230.23,22 L233.72,21.14 L234.47,21.19 L233.49,21.8 L234.73,21.9 L235.44,21.56 L237.32,21.53 L238.8,21.12 L239.94,21.72 L241.08,21.06 L240.03,20.48 L240.55,20.15 L243.5,20.45 L244.89,20.77 L248.51,21.91 L249.18,21.38 L248.16,20.86 L248.14,20.64 L246.93,20.55 L247.26,20.07 L246.72,19.29 L246.69,18.97 L248.54,18.07 L249.2,17.16 L249.94,16.96 L252.59,17.22 L252.8,17.78 L251.85,18.59 L252.47,18.91 L252.79,19.61 L252.56,20.98 L253.67,21.59 L253.24,22.26 L251.28,23.68 L252.42,23.83 L252.82,23.47 L253.92,23.21 L254.19,22.72 L255.05,22.24 L254.47,21.67 L254.94,21.01 L253.84,20.93 L253.6,20.37 L254.4,19.37 L253.1,18.55 L254.89,17.88 L254.66,17.17 L255.16,17.14 L255.68,17.7 L255.29,18.66 L256.36,18.85 L255.9,18.13 L257.58,17.73 L259.65,17.68 L261.5,18.25 L260.61,17.42 L260.51,16.35 L262.25,16.15 L264.66,16.19 L266.82,16.06 L266.01,15.54 L267.17,14.88 L268.32,14.86 L270.26,14.36 L272.9,14.23 L273.23,13.95 L275.86,13.86 L276.68,14.08 L278.92,13.55 L280.76,13.57 L281.04,13.14 L281.99,12.71 L284.35,12.3 L286.07,12.63 L284.71,12.87 L286.97,13.03ZM229.11,48.72 L229.62,49.43 L230.08,49.47 L230.39,49.74 L229.57,49.82 L229.4,50.6 L229.22,50.95 L228.86,51.18 L228.88,51.68 L229.2,52.42 L230.15,52.63 L230.84,53.13 L232.26,53.3 L233.83,53.03 L233.92,52.8 L233.74,52.09 L233.88,51.05 L233.1,50.71 L233.36,50.02 L232.69,49.97 L232.92,49.12 L233.86,49.37 L234.74,49.05 L234.01,48.45 L233.72,47.88 L232.92,48.13 L232.81,48.86 L232.5,48.22 L232.45,47.97 L232.69,47.56 L232.5,47.21 L231.34,46.87 L230.89,45.97 L230.34,45.72 L230.31,45.39 L231.28,45.49 L231.32,44.75 L232.17,44.59 L233.04,44.74 L233.22,43.77 L233.04,43.15 L232.04,43.2 L231.19,42.95 L230.03,43.39 L229.1,43.6 L228.65,44.19 L227.68,44.36 L226.68,45.39 L227.59,46.34 L227.49,47.01 L228.58,48.19 L229.11,48.72Z"/>
<path d="M86.16,12.48 L85.7,12.51 L83.83,12.44 L83.56,12.17 L85.58,12.18 L86.28,12.37 L86.16,12.48Z"/>
<path d="M69.81,12.3 L67.95,12.59 L66.47,12.27 L67.28,11.95 L68.74,11.85 L70.15,12 L69.81,12.3Z"/>
<path d="M204.72,12.15 L202.49,12.56 L200.73,12.32 L201.42,12.06 L200.81,11.75 L202.88,11.55 L203.28,11.92 L204.72,12.15Z"/>
<path d="M70.34,11.4 L69.12,11.59 L67.46,11.59 L67.47,11.45 L68.5,11.15 L69.04,11.2 L70.34,11.4Z"/>
<path d="M84.17,11.94 L82.69,12.15 L81.88,11.92 L81.45,11.54 L81.37,11.13 L82.66,11.17 L83.25,11.23 L84.44,11.58 L84.17,11.94Z"/>
<path d="M79.94,11.68 L80.33,12.09 L78.7,11.98 L77.05,11.66 L74.82,11.62 L75.79,11.32 L74.58,11.08 L74.51,10.7 L76.47,10.83 L79.17,11.2 L79.94,11.68Z"/>
<path d="M285.08,11.69 L279.44,12.08 L281.26,10.77 L282.09,10.65 L282.84,10.72 L285.37,11.29 L285.08,11.69Z"/>
<path d="M198.25,10.3 L201.54,11.04 L199.03,11.44 L198.47,12.17 L197.59,12.36 L197.12,13.19 L195.91,13.23 L193.76,12.62 L194.67,12.26 L193.17,11.98 L191.22,11.13 L190.44,10.35 L193.17,9.99 L193.72,10.34 L195.14,10.33 L195.52,9.98 L196.99,9.95 L198.25,10.3Z"/>
<path d="M205.45,9.59 L207.41,9.94 L205.92,10.48 L203.02,10.6 L200.08,10.43 L199.9,10.16 L198.46,10.14 L197.37,9.68 L200.46,9.4 L201.91,9.64 L202.92,9.34 L205.45,9.59Z"/>
<path d="M231.14,9.45 L229.79,9.58 L228.89,9.66 L228.75,9.82 L227.59,9.99 L226.5,9.75 L227.07,9.44 L224.85,9.41 L226.8,9.23 L228.32,9.22 L228.52,9.49 L229.1,9.25 L230.04,9.08 L231.52,9.3 L231.14,9.45Z"/>
<path d="M279.94,11.12 L277.76,11.24 L274.97,10.96 L273.31,10.57 L272.55,9.86 L271.18,9.66 L273.78,8.98 L275.94,8.75 L277.88,9.25 L280.19,10.22 L279.94,11.12Z"/>
<path d="M92.98,10.34 L94.19,10.66 L92.81,10.96 L90.96,11.71 L89.2,11.78 L87.12,11.66 L86.05,11.25 L86.06,10.89 L86.85,10.62 L85.03,10.63 L83.92,10.29 L83.29,9.84 L83.98,9.4 L84.68,9.09 L85.7,9.02 L85.26,8.79 L87.59,8.74 L88.87,9.28 L90.55,9.49 L92.19,9.68 L92.98,10.34Z"/>
<path d="M111.5,6.89 L114.17,6.97 L116.32,7.1 L118.15,7.37 L118.11,7.64 L115.67,8.07 L113.25,8.27 L112.34,8.5 L114.52,8.49 L112.16,9.1 L110.53,9.38 L108.82,10.2 L106.76,10.37 L106.12,10.57 L103.09,10.68 L104.47,10.8 L103.78,10.98 L104.61,11.47 L103.66,11.82 L102.11,12.1 L101.64,12.49 L100.24,12.79 L100.38,13.02 L102.09,12.98 L102.11,13.22 L99.44,13.82 L96.83,13.55 L93.89,13.7 L92.4,13.58 L90.51,13.53 L90.38,13.05 L92.23,12.82 L91.74,12.1 L92.35,12.03 L95.02,12.46 L93.66,11.82 L92.04,11.63 L92.85,11.24 L94.62,11 L94.91,10.65 L93.49,10.26 L93.07,9.75 L95.8,9.79 L96.59,9.9 L98.15,9.54 L95.9,9.42 L92.4,9.48 L90.63,9.14 L89.8,8.74 L88.63,8.45 L88.41,8.11 L89.9,7.92 L91.07,7.88 L93.03,7.72 L94.5,7.35 L95.74,7.4 L96.82,7.68 L97.58,7.14 L98.9,6.98 L100.69,6.87 L103.75,6.83 L104.28,6.94 L107.17,6.77 L109.33,6.83 L111.5,6.89Z"/>
<path d="M152.9,6.48 L159.15,7.27 L157.31,7.66 L153.48,7.7 L148.1,7.8 L148.6,7.98 L152.14,7.87 L155.16,8.21 L157.1,7.91 L157.93,8.27 L156.83,8.85 L159.38,8.48 L164.23,8.09 L167.23,8.28 L167.79,8.71 L163.71,9.42 L163.15,9.65 L159.95,9.82 L162.27,9.87 L161.1,10.6 L160.3,11.25 L160.33,12.36 L161.53,13.01 L159.96,13.06 L158.32,13.37 L160.17,13.9 L160.4,14.75 L159.33,14.84 L160.63,15.7 L158.41,15.78 L159.57,16.18 L159.24,16.54 L157.83,16.69 L156.43,16.69 L157.69,17.37 L157.7,17.82 L155.72,17.4 L155.21,17.67 L156.56,17.92 L157.87,18.53 L158.25,19.34 L156.46,19.53 L155.69,19.14 L154.46,18.57 L154.8,19.25 L153.64,19.77 L156.27,19.82 L157.65,19.87 L154.97,20.74 L152.25,21.53 L149.33,21.87 L148.22,21.88 L147.19,22.26 L145.8,23.32 L143.65,24.02 L142.96,24.06 L141.62,24.31 L140.19,24.54 L139.33,25.16 L139.32,25.86 L138.81,26.52 L137.18,27.32 L137.58,28.1 L137.13,28.93 L136.62,29.9 L135.21,29.96 L133.74,29.15 L131.74,29.14 L130.77,28.59 L130.1,27.62 L128.37,26.37 L127.86,25.72 L127.72,24.82 L126.34,23.9 L126.7,23.16 L126.03,22.81 L127.02,21.64 L128.52,21.27 L128.92,20.85 L129.13,20.07 L127.99,20.43 L127.44,20.57 L126.54,20.72 L125.32,20.39 L125.25,19.71 L125.64,19.18 L126.57,19.16 L128.61,19.43 L126.89,18.8 L126,18.45 L125,18.59 L124.17,18.35 L125.28,17.41 L124.67,17.04 L123.88,16.35 L122.68,15.29 L121.4,14.9 L121.41,14.48 L118.73,13.9 L116.61,13.82 L113.94,13.87 L111.5,13.94 L110.34,13.62 L108.6,12.99 L111.22,12.68 L113.24,12.62 L108.96,12.36 L106.7,11.96 L106.84,11.57 L110.63,11.09 L114.29,10.61 L114.68,10.24 L111.98,9.88 L112.85,9.48 L116.31,8.79 L117.77,8.68 L117.35,8.23 L119.72,7.97 L122.79,7.81 L125.87,7.8 L126.96,8.11 L129.61,7.56 L132,7.94 L133.4,8.01 L135.48,8.34 L133.1,7.8 L133.24,7.37 L136.59,6.77 L140.1,6.82 L141.38,6.45 L144.91,6.35 L152.9,6.48Z"/>
</g>
</svg>
