<svg xmlns="http://www.w3.org/2000/svg" viewBox="0 0 256 256" width="256" height="256">
<polygon points="96.16,221.75 159.84,221.75 152.83,211.99 103.17,211.99" fill="#b3bbc3" stroke="#12151a" stroke-width="1.1" stroke-linejoin="round"/>
<polygon points="116.36,164.69 139.64,164.69 139.64,149.29 116.36,149.29" fill="#363c41" stroke="#12151a" stroke-width="1.1" stroke-linejoin="round"/>
<polygon points="139.64,164.69 158.48,153.62 158.48,138.21 139.64,149.29" fill="#3d4248" stroke="#12151a" stroke-width="1.1" stroke-linejoin="round"/>
<polygon points="97.52,153.62 116.36,164.69 116.36,149.29 97.52,138.21" fill="#363c41" stroke="#12151a" stroke-width="1.1" stroke-linejoin="round"/>
<polygon points="159.84,221.75 211.36,191.47 192.99,188.38 152.83,211.99" fill="#a0a7ae" stroke="#12151a" stroke-width="1.1" stroke-linejoin="round"/>
<polygon points="44.64,191.47 96.16,221.75 103.17,211.99 63.01,188.38" fill="#c1c9d1" stroke="#12151a" stroke-width="1.1" stroke-linejoin="round"/>
<polygon points="103.17,211.99 152.83,211.99 144.85,189.46 111.15,189.46" fill="#aeb5bd" stroke="#12151a" stroke-width="1.1" stroke-linejoin="round"/>
<polygon points="218.61,181.26 240.00,128.00 231.04,142.48 211.36,191.47" fill="#393e43" stroke="#12151a" stroke-width="1.1" stroke-linejoin="round"/>
<polygon points="16.00,128.00 37.39,181.26 44.64,191.47 24.96,142.48" fill="#99a1a8" stroke="#12151a" stroke-width="1.1" stroke-linejoin="round"/>
<polygon points="111.15,189.46 144.85,189.46 139.64,164.69 116.36,164.69" fill="#6d747a" stroke="#12151a" stroke-width="1.1" stroke-linejoin="round"/>
<polygon points="158.48,153.62 165.68,135.70 165.68,120.30 158.48,138.21" fill="#60666c" stroke="#12151a" stroke-width="1.1" stroke-linejoin="round"/>
<polygon points="90.32,135.70 97.52,153.62 97.52,138.21 90.32,120.30" fill="#363c41" stroke="#12151a" stroke-width="1.1" stroke-linejoin="round"/>
<polygon points="144.85,189.46 172.11,173.43 158.48,153.62 139.64,164.69" fill="#8b9299" stroke="#12151a" stroke-width="1.1" stroke-linejoin="round"/>
<polygon points="83.89,173.43 111.15,189.46 116.36,164.69 97.52,153.62" fill="#595f65" stroke="#12151a" stroke-width="1.1" stroke-linejoin="round"/>
<polygon points="152.83,211.99 192.99,188.38 172.11,173.43 144.85,189.46" fill="#b5bcc4" stroke="#12151a" stroke-width="1.1" stroke-linejoin="round"/>
<polygon points="63.01,188.38 103.17,211.99 111.15,189.46 83.89,173.43" fill="#a9b1b8" stroke="#12151a" stroke-width="1.1" stroke-linejoin="round"/>
<polygon points="211.36,191.47 231.04,142.48 208.34,150.18 192.99,188.38" fill="#8e959c" stroke="#12151a" stroke-width="1.1" stroke-linejoin="round"/>
<polygon points="24.96,142.48 44.64,191.47 63.01,188.38 47.66,150.18" fill="#c3cbd3" stroke="#12151a" stroke-width="1.1" stroke-linejoin="round"/>
<polygon points="172.11,173.43 182.53,147.50 165.68,135.70 158.48,153.62" fill="#a6aeb5" stroke="#12151a" stroke-width="1.1" stroke-linejoin="round"/>
<polygon points="73.47,147.50 83.89,173.43 97.52,153.62 90.32,135.70" fill="#565c62" stroke="#12151a" stroke-width="1.1" stroke-linejoin="round"/>
<polygon points="192.99,188.38 208.34,150.18 182.53,147.50 172.11,173.43" fill="#bbc3cb" stroke="#12151a" stroke-width="1.1" stroke-linejoin="round"/>
<polygon points="47.66,150.18 63.01,188.38 83.89,173.43 73.47,147.50" fill="#a8b0b7" stroke="#12151a" stroke-width="1.1" stroke-linejoin="round"/>
<polygon points="182.53,147.50 172.11,121.58 158.48,117.79 165.68,135.70" fill="#b5bdc5" stroke="#12151a" stroke-width="1.1" stroke-linejoin="round"/>
<polygon points="83.89,121.58 73.47,147.50 90.32,135.70 97.52,117.79" fill="#656b72" stroke="#12151a" stroke-width="1.1" stroke-linejoin="round"/>
<polygon points="240.00,128.00 218.61,74.74 211.36,93.48 231.04,142.48" fill="#363c41" stroke="#12151a" stroke-width="1.1" stroke-linejoin="round"/>
<polygon points="37.39,74.74 16.00,128.00 24.96,142.48 44.64,93.48" fill="#878e95" stroke="#12151a" stroke-width="1.1" stroke-linejoin="round"/>
<polygon points="211.36,64.53 159.84,34.25 162.61,41.82 218.61,74.74" fill="#363c41" stroke="#12151a" stroke-width="1.1" stroke-linejoin="round"/>
<polygon points="96.16,34.25 44.64,64.53 37.39,74.74 93.39,41.82" fill="#363c41" stroke="#12151a" stroke-width="1.1" stroke-linejoin="round"/>
<polygon points="172.11,121.58 144.85,105.55 139.64,106.71 158.48,117.79" fill="#b2bac2" stroke="#12151a" stroke-width="1.1" stroke-linejoin="round"/>
<polygon points="111.15,105.55 83.89,121.58 97.52,117.79 116.36,106.71" fill="#81878e" stroke="#12151a" stroke-width="1.1" stroke-linejoin="round"/>
<polygon points="208.34,150.18 192.99,111.98 172.11,121.58 182.53,147.50" fill="#bfc6ce" stroke="#12151a" stroke-width="1.1" stroke-linejoin="round"/>
<polygon points="63.01,111.98 47.66,150.18 73.47,147.50 83.89,121.58" fill="#acb3bb" stroke="#12151a" stroke-width="1.1" stroke-linejoin="round"/>
<polygon points="231.04,142.48 211.36,93.48 192.99,111.98 208.34,150.18" fill="#848a91" stroke="#12151a" stroke-width="1.1" stroke-linejoin="round"/>
<polygon points="44.64,93.48 24.96,142.48 47.66,150.18 63.01,111.98" fill="#b9c0c8" stroke="#12151a" stroke-width="1.1" stroke-linejoin="round"/>
<polygon points="144.85,105.55 111.15,105.55 116.36,106.71 139.64,106.71" fill="#9ea5ad" stroke="#12151a" stroke-width="1.1" stroke-linejoin="round"/>
<polygon points="159.84,34.25 96.16,34.25 93.39,41.82 162.61,41.82" fill="#363c41" stroke="#12151a" stroke-width="1.1" stroke-linejoin="round"/>
<polygon points="218.61,74.74 162.61,41.82 159.84,63.20 211.36,93.48" fill="#363c41" stroke="#12151a" stroke-width="1.1" stroke-linejoin="round"/>
<polygon points="93.39,41.82 37.39,74.74 44.64,93.48 96.16,63.20" fill="#666c73" stroke="#12151a" stroke-width="1.1" stroke-linejoin="round"/>
<polygon points="192.99,111.98 152.83,88.37 144.85,105.55 172.11,121.58" fill="#bec6ce" stroke="#12151a" stroke-width="1.1" stroke-linejoin="round"/>
<polygon points="103.17,88.37 63.01,111.98 83.89,121.58 111.15,105.55" fill="#b2bac2" stroke="#12151a" stroke-width="1.1" stroke-linejoin="round"/>
<polygon points="152.83,88.37 103.17,88.37 111.15,105.55 144.85,105.55" fill="#b9c1c9" stroke="#12151a" stroke-width="1.1" stroke-linejoin="round"/>
<polygon points="211.36,93.48 159.84,63.20 152.83,88.37 192.99,111.98" fill="#868c93" stroke="#12151a" stroke-width="1.1" stroke-linejoin="round"/>
<polygon points="96.16,63.20 44.64,93.48 63.01,111.98 103.17,88.37" fill="#a6aeb5" stroke="#12151a" stroke-width="1.1" stroke-linejoin="round"/>
<polygon points="162.61,41.82 93.39,41.82 96.16,63.20 159.84,63.20" fill="#42484e" stroke="#12151a" stroke-width="1.1" stroke-linejoin="round"/>
<polygon points="159.84,63.20 96.16,63.20 103.17,88.37 152.83,88.37" fill="#939aa1" stroke="#12151a" stroke-width="1.1" stroke-linejoin="round"/>
</svg>