<svg xmlns="http://www.w3.org/2000/svg" viewBox="0 0 256 256" width="256" height="256">
<defs><clipPath id="ring"><path d="M128.00,25.20 L188.42,44.83 L225.77,96.23 L225.77,159.77 L188.42,211.17 L128.00,230.80 L67.58,211.17 L30.23,159.77 L30.23,96.23 L67.58,44.83Z M101.20,91.11 L84.63,113.91 L84.63,142.09 L101.20,164.89 L128.00,173.60 L154.80,164.89 L171.37,142.09 L171.37,113.91 L154.80,91.11 L128.00,82.40Z" fill-rule="evenodd"/></clipPath></defs>
<path d="M128.00,25.20 L188.42,44.83 L225.77,96.23 L225.77,159.77 L188.42,211.17 L128.00,230.80 L67.58,211.17 L30.23,159.77 L30.23,96.23 L67.58,44.83Z M101.20,91.11 L84.63,113.91 L84.63,142.09 L101.20,164.89 L128.00,173.60 L154.80,164.89 L171.37,142.09 L171.37,113.91 L154.80,91.11 L128.00,82.40Z" fill-rule="evenodd" fill="#8357e4"/>
<g clip-path="url(#ring)">
<polygon points="128.00,12.00 166.11,34.00 128.00,56.00 89.89,34.00" fill="#b378ff" stroke="#251242" stroke-width="2.20" stroke-linejoin="round"/>
<polygon points="166.11,34.00 166.11,78.00 128.00,100.00 128.00,56.00" fill="#8357e4" stroke="#251242" stroke-width="2.20" stroke-linejoin="round"/>
<polygon points="89.89,34.00 128.00,56.00 128.00,100.00 89.89,78.00" fill="#533790" stroke="#251242" stroke-width="2.20" stroke-linejoin="round"/>
<polygon points="196.18,34.15 214.08,74.35 170.32,69.75 152.42,29.55" fill="#b378ff" stroke="#251242" stroke-width="2.20" stroke-linejoin="round"/>
<polygon points="214.08,74.35 188.22,109.95 144.46,105.35 170.32,69.75" fill="#8357e4" stroke="#251242" stroke-width="2.20" stroke-linejoin="round"/>
<polygon points="152.42,29.55 170.32,69.75 144.46,105.35 126.56,65.15" fill="#533790" stroke="#251242" stroke-width="2.20" stroke-linejoin="round"/>
<polygon points="238.32,92.15 229.17,135.19 196.48,105.75 205.62,62.71" fill="#b378ff" stroke="#251242" stroke-width="2.20" stroke-linejoin="round"/>
<polygon points="229.17,135.19 187.33,148.79 154.63,119.35 196.48,105.75" fill="#8357e4" stroke="#251242" stroke-width="2.20" stroke-linejoin="round"/>
<polygon points="205.62,62.71 196.48,105.75 154.63,119.35 163.78,76.31" fill="#533790" stroke="#251242" stroke-width="2.20" stroke-linejoin="round"/>
<polygon points="238.32,163.85 205.62,193.29 196.48,150.25 229.17,120.81" fill="#b378ff" stroke="#251242" stroke-width="2.20" stroke-linejoin="round"/>
<polygon points="205.62,193.29 163.78,179.69 154.63,136.65 196.48,150.25" fill="#8357e4" stroke="#251242" stroke-width="2.20" stroke-linejoin="round"/>
<polygon points="229.17,120.81 196.48,150.25 154.63,136.65 187.33,107.21" fill="#533790" stroke="#251242" stroke-width="2.20" stroke-linejoin="round"/>
<polygon points="196.18,221.85 152.42,226.45 170.32,186.25 214.08,181.65" fill="#b378ff" stroke="#251242" stroke-width="2.20" stroke-linejoin="round"/>
<polygon points="152.42,226.45 126.56,190.85 144.46,150.65 170.32,186.25" fill="#8357e4" stroke="#251242" stroke-width="2.20" stroke-linejoin="round"/>
<polygon points="214.08,181.65 170.32,186.25 144.46,150.65 188.22,146.05" fill="#533790" stroke="#251242" stroke-width="2.20" stroke-linejoin="round"/>
<polygon points="128.00,244.00 89.89,222.00 128.00,200.00 166.11,222.00" fill="#b378ff" stroke="#251242" stroke-width="2.20" stroke-linejoin="round"/>
<polygon points="89.89,222.00 89.89,178.00 128.00,156.00 128.00,200.00" fill="#8357e4" stroke="#251242" stroke-width="2.20" stroke-linejoin="round"/>
<polygon points="166.11,222.00 128.00,200.00 128.00,156.00 166.11,178.00" fill="#533790" stroke="#251242" stroke-width="2.20" stroke-linejoin="round"/>
<polygon points="59.82,221.85 41.92,181.65 85.68,186.25 103.58,226.45" fill="#b378ff" stroke="#251242" stroke-width="2.20" stroke-linejoin="round"/>
<polygon points="41.92,181.65 67.78,146.05 111.54,150.65 85.68,186.25" fill="#8357e4" stroke="#251242" stroke-width="2.20" stroke-linejoin="round"/>
<polygon points="103.58,226.45 85.68,186.25 111.54,150.65 129.44,190.85" fill="#533790" stroke="#251242" stroke-width="2.20" stroke-linejoin="round"/>
<polygon points="17.68,163.85 26.83,120.81 59.52,150.25 50.38,193.29" fill="#b378ff" stroke="#251242" stroke-width="2.20" stroke-linejoin="round"/>
<polygon points="26.83,120.81 68.67,107.21 101.37,136.65 59.52,150.25" fill="#8357e4" stroke="#251242" stroke-width="2.20" stroke-linejoin="round"/>
<polygon points="50.38,193.29 59.52,150.25 101.37,136.65 92.22,179.69" fill="#533790" stroke="#251242" stroke-width="2.20" stroke-linejoin="round"/>
<polygon points="17.68,92.15 50.38,62.71 59.52,105.75 26.83,135.19" fill="#b378ff" stroke="#251242" stroke-width="2.20" stroke-linejoin="round"/>
<polygon points="50.38,62.71 92.22,76.31 101.37,119.35 59.52,105.75" fill="#8357e4" stroke="#251242" stroke-width="2.20" stroke-linejoin="round"/>
<polygon points="26.83,135.19 59.52,105.75 101.37,119.35 68.67,148.79" fill="#533790" stroke="#251242" stroke-width="2.20" stroke-linejoin="round"/>
<polygon points="59.82,34.15 103.58,29.55 85.68,69.75 41.92,74.35" fill="#b378ff" stroke="#251242" stroke-width="2.20" stroke-linejoin="round"/>
<polygon points="103.58,29.55 129.44,65.15 111.54,105.35 85.68,69.75" fill="#8357e4" stroke="#251242" stroke-width="2.20" stroke-linejoin="round"/>
<polygon points="41.92,74.35 85.68,69.75 111.54,105.35 67.78,109.95" fill="#533790" stroke="#251242" stroke-width="2.20" stroke-linejoin="round"/>
</g>
<path d="M128.00,25.20 L188.42,44.83 L225.77,96.23 L225.77,159.77 L188.42,211.17 L128.00,230.80 L67.58,211.17 L30.23,159.77 L30.23,96.23 L67.58,44.83Z M101.20,91.11 L84.63,113.91 L84.63,142.09 L101.20,164.89 L128.00,173.60 L154.80,164.89 L171.37,142.09 L171.37,113.91 L154.80,91.11 L128.00,82.40Z" fill-rule="evenodd" fill="none" stroke="#251242" stroke-width="3.08" stroke-linejoin="round"/>
</svg>