<svg xmlns="http://www.w3.org/2000/svg" viewBox="0 0 256 256" width="256" height="256">
<polygon points="96.16,221.75 159.84,221.75 152.83,211.99 103.17,211.99" fill="#aa79e2" stroke="#1f0d3a" stroke-width="1.1" stroke-linejoin="round"/>
<polygon points="116.36,164.69 139.64,164.69 139.64,149.29 116.36,149.29" fill="#43236e" stroke="#1f0d3a" stroke-width="1.1" stroke-linejoin="round"/>
<polygon points="139.64,164.69 158.48,153.62 158.48,138.21 139.64,149.29" fill="#482874" stroke="#1f0d3a" stroke-width="1.1" stroke-linejoin="round"/>
<polygon points="97.52,153.62 116.36,164.69 116.36,149.29 97.52,138.21" fill="#43236e" stroke="#1f0d3a" stroke-width="1.1" stroke-linejoin="round"/>
<polygon points="159.84,221.75 211.36,191.47 192.99,188.38 152.83,211.99" fill="#9a6bd0" stroke="#1f0d3a" stroke-width="1.1" stroke-linejoin="round"/>
<polygon points="44.64,191.47 96.16,221.75 103.17,211.99 63.01,188.38" fill="#b582ef" stroke="#1f0d3a" stroke-width="1.1" stroke-linejoin="round"/>
<polygon points="103.17,211.99 152.83,211.99 144.85,189.46 111.15,189.46" fill="#a675dd" stroke="#1f0d3a" stroke-width="1.1" stroke-linejoin="round"/>
<polygon points="218.61,181.26 240.00,128.00 231.04,142.48 211.36,191.47" fill="#452570" stroke="#1f0d3a" stroke-width="1.1" stroke-linejoin="round"/>
<polygon points="16.00,128.00 37.39,181.26 44.64,191.47 24.96,142.48" fill="#9567ca" stroke="#1f0d3a" stroke-width="1.1" stroke-linejoin="round"/>
<polygon points="111.15,189.46 144.85,189.46 139.64,164.69 116.36,164.69" fill="#7049a1" stroke="#1f0d3a" stroke-width="1.1" stroke-linejoin="round"/>
<polygon points="158.48,153.62 165.68,135.70 165.68,120.30 158.48,138.21" fill="#654095" stroke="#1f0d3a" stroke-width="1.1" stroke-linejoin="round"/>
<polygon points="90.32,135.70 97.52,153.62 97.52,138.21 90.32,120.30" fill="#43236e" stroke="#1f0d3a" stroke-width="1.1" stroke-linejoin="round"/>
<polygon points="144.85,189.46 172.11,173.43 158.48,153.62 139.64,164.69" fill="#895dbd" stroke="#1f0d3a" stroke-width="1.1" stroke-linejoin="round"/>
<polygon points="83.89,173.43 111.15,189.46 116.36,164.69 97.52,153.62" fill="#603b8f" stroke="#1f0d3a" stroke-width="1.1" stroke-linejoin="round"/>
<polygon points="152.83,211.99 192.99,188.38 172.11,173.43 144.85,189.46" fill="#ab7ae4" stroke="#1f0d3a" stroke-width="1.1" stroke-linejoin="round"/>
<polygon points="63.01,188.38 103.17,211.99 111.15,189.46 83.89,173.43" fill="#a272d9" stroke="#1f0d3a" stroke-width="1.1" stroke-linejoin="round"/>
<polygon points="211.36,191.47 231.04,142.48 208.34,150.18 192.99,188.38" fill="#8b5fbf" stroke="#1f0d3a" stroke-width="1.1" stroke-linejoin="round"/>
<polygon points="24.96,142.48 44.64,191.47 63.01,188.38 47.66,150.18" fill="#b783f1" stroke="#1f0d3a" stroke-width="1.1" stroke-linejoin="round"/>
<polygon points="172.11,173.43 182.53,147.50 165.68,135.70 158.48,153.62" fill="#9f70d6" stroke="#1f0d3a" stroke-width="1.1" stroke-linejoin="round"/>
<polygon points="73.47,147.50 83.89,173.43 97.52,153.62 90.32,135.70" fill="#5d398c" stroke="#1f0d3a" stroke-width="1.1" stroke-linejoin="round"/>
<polygon points="192.99,188.38 208.34,150.18 182.53,147.50 172.11,173.43" fill="#b17eea" stroke="#1f0d3a" stroke-width="1.1" stroke-linejoin="round"/>
<polygon points="47.66,150.18 63.01,188.38 83.89,173.43 73.47,147.50" fill="#a171d8" stroke="#1f0d3a" stroke-width="1.1" stroke-linejoin="round"/>
<polygon points="182.53,147.50 172.11,121.58 158.48,117.79 165.68,135.70" fill="#ac7ae4" stroke="#1f0d3a" stroke-width="1.1" stroke-linejoin="round"/>
<polygon points="83.89,121.58 73.47,147.50 90.32,135.70 97.52,117.79" fill="#6a439a" stroke="#1f0d3a" stroke-width="1.1" stroke-linejoin="round"/>
<polygon points="240.00,128.00 218.61,74.74 211.36,93.48 231.04,142.48" fill="#43236e" stroke="#1f0d3a" stroke-width="1.1" stroke-linejoin="round"/>
<polygon points="37.39,74.74 16.00,128.00 24.96,142.48 44.64,93.48" fill="#865bb9" stroke="#1f0d3a" stroke-width="1.1" stroke-linejoin="round"/>
<polygon points="211.36,64.53 159.84,34.25 162.61,41.82 218.61,74.74" fill="#43236e" stroke="#1f0d3a" stroke-width="1.1" stroke-linejoin="round"/>
<polygon points="96.16,34.25 44.64,64.53 37.39,74.74 93.39,41.82" fill="#43236e" stroke="#1f0d3a" stroke-width="1.1" stroke-linejoin="round"/>
<polygon points="172.11,121.58 144.85,105.55 139.64,106.71 158.48,117.79" fill="#a978e1" stroke="#1f0d3a" stroke-width="1.1" stroke-linejoin="round"/>
<polygon points="111.15,105.55 83.89,121.58 97.52,117.79 116.36,106.71" fill="#8056b3" stroke="#1f0d3a" stroke-width="1.1" stroke-linejoin="round"/>
<polygon points="208.34,150.18 192.99,111.98 172.11,121.58 182.53,147.50" fill="#b480ed" stroke="#1f0d3a" stroke-width="1.1" stroke-linejoin="round"/>
<polygon points="63.01,111.98 47.66,150.18 73.47,147.50 83.89,121.58" fill="#a474dc" stroke="#1f0d3a" stroke-width="1.1" stroke-linejoin="round"/>
<polygon points="231.04,142.48 211.36,93.48 192.99,111.98 208.34,150.18" fill="#8358b6" stroke="#1f0d3a" stroke-width="1.1" stroke-linejoin="round"/>
<polygon points="44.64,93.48 24.96,142.48 47.66,150.18 63.01,111.98" fill="#af7ce7" stroke="#1f0d3a" stroke-width="1.1" stroke-linejoin="round"/>
<polygon points="144.85,105.55 111.15,105.55 116.36,106.71 139.64,106.71" fill="#996acf" stroke="#1f0d3a" stroke-width="1.1" stroke-linejoin="round"/>
<polygon points="159.84,34.25 96.16,34.25 93.39,41.82 162.61,41.82" fill="#43236e" stroke="#1f0d3a" stroke-width="1.1" stroke-linejoin="round"/>
<polygon points="218.61,74.74 162.61,41.82 159.84,63.20 211.36,93.48" fill="#43236e" stroke="#1f0d3a" stroke-width="1.1" stroke-linejoin="round"/>
<polygon points="93.39,41.82 37.39,74.74 44.64,93.48 96.16,63.20" fill="#6a449a" stroke="#1f0d3a" stroke-width="1.1" stroke-linejoin="round"/>
<polygon points="192.99,111.98 152.83,88.37 144.85,105.55 172.11,121.58" fill="#b380ec" stroke="#1f0d3a" stroke-width="1.1" stroke-linejoin="round"/>
<polygon points="103.17,88.37 63.01,111.98 83.89,121.58 111.15,105.55" fill="#a978e2" stroke="#1f0d3a" stroke-width="1.1" stroke-linejoin="round"/>
<polygon points="152.83,88.37 103.17,88.37 111.15,105.55 144.85,105.55" fill="#af7de8" stroke="#1f0d3a" stroke-width="1.1" stroke-linejoin="round"/>
<polygon points="211.36,93.48 159.84,63.20 152.83,88.37 192.99,111.98" fill="#8459b8" stroke="#1f0d3a" stroke-width="1.1" stroke-linejoin="round"/>
<polygon points="96.16,63.20 44.64,93.48 63.01,111.98 103.17,88.37" fill="#a070d6" stroke="#1f0d3a" stroke-width="1.1" stroke-linejoin="round"/>
<polygon points="162.61,41.82 93.39,41.82 96.16,63.20 159.84,63.20" fill="#4d2c79" stroke="#1f0d3a" stroke-width="1.1" stroke-linejoin="round"/>
<polygon points="159.84,63.20 96.16,63.20 103.17,88.37 152.83,88.37" fill="#8f62c4" stroke="#1f0d3a" stroke-width="1.1" stroke-linejoin="round"/>
</svg>