<?xml version="1.0" encoding="UTF-8"?>
<svg version="1.1" xmlns="http://www.w3.org/2000/svg" width="180" height="180">
<path d="M0,0 L63,0 L86,13 L92,18 L107,45 L120,68 L122,71 L122,104 L108,129 L94,153 L91,158 L71,170 L64,174 L-1,174 L-27,159 L-41,133 L-54,110 L-58,103 L-58,69 L-42,41 L-28,18 L-23,14 Z M31,58 L8,71 L7,72 L7,102 L23,111 L31,116 L36,114 L57,102 L57,72 L34,58 Z " fill="#040505" transform="translate(58,2)"/>
<path d="M0,0 L29,0 L29,28 L1,29 L0,12 Z " fill="#3e4543" transform="translate(18,49)"/>
<path d="M0,0 L5,2 L25,13 L23,19 L13,37 L9,37 L-11,26 L-12,23 Z " fill="#3f4544" transform="translate(135,33)"/>
<path d="M0,0 L4,2 L16,22 L16,24 L-5,37 L-9,36 L-19,19 L-21,13 L-12,7 Z " fill="#3f4544" transform="translate(99,134)"/>
<path d="M0,0 L9,0 L10,18 L10,29 L-18,29 L-18,1 Z " fill="#3e4543" transform="translate(152,101)"/>
<path d="M0,0 L5,1 L24,12 L23,16 L13,35 L9,36 L-13,24 L-11,18 Z " fill="#3f4544" transform="translate(33,108)"/>
<path d="M0,0 L4,1 L13,16 L16,21 L15,25 L0,34 L-5,37 L-7,37 L-19,18 L-21,14 L-11,7 Z " fill="#3f4544" transform="translate(86,7)"/>
<path d="M0,0 L28,0 L41,23 L41,25 L13,25 L3,7 Z " fill="#49514f" transform="translate(47,148)"/>
<path d="M0,0 L27,0 L25,5 L14,25 L-13,25 L-11,19 L-1,1 Z " fill="#333837" transform="translate(106,32)"/>
<path d="M0,0 L28,0 L26,6 L16,23 L15,24 L-13,24 L-11,19 Z " fill="#49514f" transform="translate(32,22)"/>
<path d="M0,0 L28,0 L26,5 L14,25 L-13,24 L-6,10 Z " fill="#48504e" transform="translate(133,132)"/>
<path d="M0,0 L2,0 L8,11 L15,22 L13,27 L3,45 L0,46 L-12,26 L-13,22 Z " fill="#343938" transform="translate(116,108)"/>
<path d="M0,0 L3,1 L15,22 L14,27 L2,47 L-1,44 L-12,25 L-11,20 Z " fill="#49514f" transform="translate(161,50)"/>
<path d="M0,0 L28,0 L26,5 L15,24 L-12,24 L-10,18 Z " fill="#333938" transform="translate(60,121)"/>
<path d="M0,0 L3,1 L15,22 L9,33 L1,46 L-3,41 L-13,23 L-11,17 Z " fill="#49514f" transform="translate(17,83)"/>
<path d="M0,0 L2,0 L15,20 L14,25 L3,45 L1,46 L-12,25 L-11,20 Z " fill="#343938" transform="translate(62,24)"/>
<path d="M0,0 L27,0 L36,15 L40,23 L33,24 L13,24 L5,11 L0,2 Z " fill="#333938" transform="translate(21,80)"/>
<path d="M0,0 L28,0 L40,22 L40,24 L14,24 L8,15 L0,1 Z " fill="#4a514f" transform="translate(92,6)"/>
<path d="M0,0 L27,0 L40,22 L40,24 L13,24 L3,7 L0,2 Z " fill="#343938" transform="translate(120,75)"/>
<path d="M0,0 L2,3 L2,28 L-9,46 L-11,46 L-11,18 Z " fill="#535c5b" transform="translate(14,53)"/>
<path d="M0,0 L26,0 L26,2 L6,14 L-20,14 L-16,10 Z " fill="#525a59" transform="translate(116,159)"/>
<path d="M0,0 L15,8 L24,14 L34,34 L32,35 L13,24 L3,7 L0,2 Z " fill="#545c5b" transform="translate(21,135)"/>
<path d="M0,0 L14,7 L23,13 L34,32 L34,34 L29,32 L13,23 L7,14 L0,2 Z " fill="#545c5b" transform="translate(124,8)"/>
<path d="M0,0 L1,0 L1,26 L-9,43 L-10,46 L-12,46 L-12,20 Z " fill="#535c5b" transform="translate(176,79)"/>
<path d="M0,0 L26,0 L41,9 L45,11 L45,13 L20,13 L0,2 Z " fill="#202323" transform="translate(39,106)"/>
<path d="M0,0 L2,0 L13,20 L13,45 L10,42 L0,25 Z " fill="#212424" transform="translate(118,80)"/>
<path d="M0,0 L2,0 L0,5 L-9,21 L-14,25 L-30,34 L-32,33 L-24,20 L-18,11 Z " fill="#212424" transform="translate(99,35)"/>
<path d="M0,0 L25,0 L20,4 L6,13 L-20,13 L-17,10 Z " fill="#545d5c" transform="translate(58,6)"/>
<path d="M0,0 L25,0 L45,12 L45,13 L20,13 L0,1 Z " fill="#202423" transform="translate(96,59)"/>
<path d="M0,0 L1,2 L-10,21 L-19,27 L-29,33 L-31,32 L-21,13 L-11,6 Z " fill="#212424" transform="translate(111,109)"/>
<path d="M0,0 L4,4 L12,17 L12,43 L9,40 L0,24 Z " fill="#212424" transform="translate(50,55)"/>
<path d="M0,0 L1,3 L0,7 L12,26 L12,28 L17,24 L18,27 L17,29 L42,30 L42,31 L19,32 L19,33 L12,34 L-7,46 L-8,44 L-4,40 L9,32 L11,32 L3,18 L-3,9 L-9,11 L-13,13 L-12,9 L-3,3 Z " fill="#0a0a0a" transform="translate(104,126)"/>
<path d="M0,0 L2,1 L1,4 L-15,14 L-10,23 L-2,35 L-2,37 L5,33 L7,34 L7,36 L-2,41 L-5,42 L-5,37 L-17,19 L-17,17 L-21,17 L-21,15 L-48,15 L-44,13 L-43,11 L-17,11 Z " fill="#090a0a" transform="translate(81,7)"/>
<path d="M0,0 L6,2 L19,9 L25,8 L25,11 L52,11 L52,12 L25,13 L27,19 L35,34 L35,36 L31,37 L29,31 L20,14 L0,3 Z " fill="#0b0c0c" transform="translate(23,134)"/>
<path d="M0,0 L26,0 L27,3 L1,3 Z " fill="#444c4a" transform="translate(105,27)"/>
<path d="M0,0 L3,1 L1,1 L-1,6 L-7,15 L-10,15 L-8,10 L-3,2 Z " fill="#090909" transform="translate(16,82)"/>
<path d="M0,0 L4,4 L3,6 L2,5 L1,23 L0,23 Z " fill="#252928" transform="translate(50,55)"/>
<path d="M0,0 L3,1 L5,7 L2,4 L0,4 L-2,6 L-1,2 Z " fill="#4f5755" transform="translate(17,83)"/>
</svg>
